<?xml version="1.0" encoding="UTF-8" standalone="no"?>
<!DOCTYPE svg PUBLIC "-//W3C//DTD SVG 1.1//EN" "http://www.w3.org/Graphics/SVG/1.1/DTD/svg11.dtd">
<svg width="100%" height="100%" viewBox="0 0 800 800" version="1.1" xmlns="http://www.w3.org/2000/svg" xmlns:xlink="http://www.w3.org/1999/xlink" xml:space="preserve" xmlns:serif="http://www.serif.com/" style="fill-rule:evenodd;clip-rule:evenodd;stroke-linejoin:round;stroke-miterlimit:2;">
    <g transform="matrix(1.07831,0,0,1.07831,-31.8524,-29.3251)">
        <path d="M29.981,27.197L116.6,107.375L124.316,110.742L185.938,137.547L262.256,27.197L29.981,27.197ZM297.803,27.197L213.281,149.416L272.755,175.244L275.684,176.514L277.783,178.858L374.903,287.011L414.797,327.586L427.297,287.695L427.148,287.645L474.953,129.25L444.288,27.197L297.803,27.197ZM474.803,27.197L502.002,117.92L666.603,84.327L655.177,27.195L474.805,27.195L474.803,27.197ZM684.959,27.197L698.095,92.872L700.93,107.128L686.672,110.009L499.756,148.144L474.022,233.497L548.584,321.094L771.436,171.191L771.436,27.197L684.959,27.197ZM29.542,66.553L29.542,329.1L137.402,288.428L106.25,137.109L106.006,137.403L29.541,66.553L29.542,66.553ZM138.48,148.73L167.336,288.77L247.367,318.945L303.03,250.733L258.155,200.733L138.478,148.73L138.48,148.73ZM771.438,206.348L527.391,370.606L505.958,387.059L771.436,552.442L771.436,206.348L771.438,206.348ZM151.855,314.161L29.542,360.302L29.542,621.142L313.136,458.839L386.767,406.739L327.638,380.227L327.591,380.373L237.794,346.534L231.497,344.73L227.931,342.823L151.856,314.163L151.855,314.161ZM531.347,437.255L522.9,446.289L453.369,520.703L445.8,610.255L553.32,754.883L771.438,660.938L771.438,586.866L531.347,437.256L531.347,437.255ZM294.823,503.027L192.334,561.67L350.438,769.094L527.491,769.094L419.092,623.194L415.819,618.798L416.256,613.283L422.558,538.72L294.823,503.03L294.823,503.027ZM166.748,576.269L29.539,654.784L29.539,769.092L313.719,769.092L166.75,576.266L166.748,576.269ZM771.436,692.725L594.141,769.094L771.438,769.094L771.438,692.725L771.436,692.725Z" style="fill-rule:nonzero;"/>
    </g>
</svg>
