<svg xmlns="http://www.w3.org/2000/svg" xml:space="preserve" style="fill-rule:evenodd;clip-rule:evenodd;stroke-linejoin:round;stroke-miterlimit:2" viewBox="0 0 1200 800"><path d="M0 7954c0-34 3-43 13-37 6 4 32 9 57 10 25 0 47 2 50 3s30 3 60 4c124 5 134 6 125 15-6 5-23 11-40 14-16 2 0 5 37 6 61 1 96-11 66-22-53-19 131-40 190-22 21 7 23 5 20-21-3-27 0-28 57-40 33-7 75-13 93-14 36 0 42-14 12-30-25-13-70-8-315 34-57 10-128 13-244 9-130-4-165-2-172 9-5 7-9-154-9-365 0-300 3-377 12-370 15 9 68 5 83-7 6-4 39-8 74-9 36-1 68-4 72-6 7-5 231-34 319-42 30-2 62-7 70-10 8-4 31-8 50-9s57-5 85-7c27-3 59-1 71 3 13 5 32 3 53-8 31-14 34-14 43 2 7 13 13 15 23 6 9-7 27-9 47-5 73 16 153 8 104-11-21-8-38-62-26-84 6-11 10-34 9-52s-1-94 0-168c1-163-6-281-16-291-13-12-144 2-140 15 2 6 14 12 28 14 13 1 35 5 49 8 25 6 25 6 3 15-29 10-29 25-2 39 16 9 18 14 9 26-9 10-9 29-1 77 15 85 14 87-11 87-23 1-23 1 0 20 21 17 22 22 12 61-9 34-9 44 4 58 10 11 14 34 13 71-2 51-4 55-32 63-16 5-38 13-47 18-10 5-29 9-43 9-37 0-44-28-43-171 0-68-1-128-2-134 0-5-1-57 0-115 1-92 4-108 22-128 47-49-6-53-362-33-238 13-266 19-255 54 10 30 12 185 2 219-10 37 40 76 75 57 13-7 51-12 86-11 60 2 63 1 60-19-2-16-11-23-31-25-74-8-116-85-82-148 14-26 25-35 44-34 15 0 49-4 76-10 29-6 71-7 100-2 54 8 65 6 65-15 0-17 23-25 76-25 47 0 62 19 17 21-28 2-28 2-3 6 14 3 29 12 35 21 13 22 16 223 3 239-7 8-7 22 0 41 11 34 9 139-4 152-5 5-39 10-77 12-37 3-73 10-79 16-7 7-41 12-80 12-38 0-85 7-105 15-19 8-46 15-59 15-28 0-52-36-35-53 6-6 11-21 11-33 0-23 12-29 105-56 78-24 68-36-29-37-48 0-96-3-109-6-12-3-30 1-40 9-17 13-18 20-6 90 6 42 10 79 7 81-3 3-59 7-125 9s-130 9-141 15-23 11-26 11-6-133-6-295c0-295 0-295 28-307 27-12 27-12 0-16-21-2-28-9-28-26 0-22 5-23 113-34 61-6 191-16 287-23 179-11 209-17 200-41-3-7-6-163-7-347-1-334-1-334-289-332-159 1-292 5-296 7-4 3-8-19-8-48 0-53 0-53 291-56 160-1 295-5 300-8 15-9-1-24-26-24-13 0-28-6-32-13-6-10-46-11-193-4-120 5-192 5-206-2-12-5-31-7-43-4-14 4-21 1-21-10 0-20-30-31-35-12-3 8-7 22-10 30-2 8-9 15-15 15-7 0-10-125-10-378 0-379 0-379 56-369 30 5 58 6 61 3 4-4-1-28-10-54s-24-82-32-125c-8-44-18-83-21-88-12-19-54-306-54-370 0-65 0-65 73-52 39 7 128 22 197 32 69 11 181 30 250 41 163 27 343 56 505 80 167 24 382 59 418 66 28 7 28 7 26-247-2-289-5-329-25-329-8 0-14 8-14 19 0 14-10 20-38 25-45 7-55 36-13 36 38 0 59 16 43 32-28 28-214 19-347-17-27-8-99-23-160-34-60-11-155-29-210-40-55-12-120-22-143-23-61-2-90-27-74-62 9-21 15-24 34-17 28 10 569 3 707-9 132-12 201-13 201-1 0 5-6 11-12 14-10 3-10 7-1 17 17 19 46 4 40-20-3-11-1-20 5-20s8-10 4-23c-3-12-6-84-7-160-1-123-8-161-27-143-3 4-5 69-4 145 3 164 16 151-153 151-60 0-207 4-325 10-500 21-455 35-456-143-2-157-2-157 145-157 80 0 198-5 261-10s213-12 334-14c206-4 247-10 232-34-4-7-20-2141-16-2224 0-4-17-2-37 6-44 16-57 69-44 107 13 37 4 84-13 71-13-11-45-10-64 2-6 4-17 4-23 0-7-4-10-1-7 7s18 15 34 15c69 3 73 4 76 26 5 35 26 33 31-4 4-33 4-33 5-1 2 23-4 37-17 45-19 11-19 13-3 41 16 27 16 29 0 41-22 16-23 62-2 70 12 5 14 17 8 68-4 34-7 75-8 92-1 26-6 32-31 37-54 11-75 21-75 37 0 12 3 13 12 4 37-37 142 14 136 67-3 22-8 26-45 29-22 2-44-1-48-7-10-18-25-12-25 9 0 14 7 20 24 20 19 0 22 4 19 23-3 16 4 26 27 39 35 20 38 40 11 85-19 31-19 31 0 49 20 18 26 69 9 79-6 4-34 8-63 10s-59 6-67 8c-8 3-76 8-150 12-74 3-148 10-165 14-16 5-111 12-210 16-160 6-182 8-198 26-23 24-25 24-53-7-25-26-44 210-62 243-8 13-10 38-6 61 4 25 2 42-5 46-24 15-116 11-150-7-19-9-43-17-53-17s-21-7-24-15c-5-11-15-14-39-9-29 5-33 3-39-21-7-26-8-27-21-9-14 18-14 18-15-3 0-27-18-31-27-6-5 13-8 12-16-8-9-24-9-24-18 6-11 37-3 66 16 59 7-3 16 0 20 6 5 8 10 8 20 0 9-8 14-6 19 5 3 8 17 15 31 15s28 7 31 15c4 8 18 15 33 15 35 0 158 28 199 46 36 16 57 56 43 83-5 9-9 26-8 36 2 18-4 20-47 18-27-1-52-6-55-11s-30-11-60-14c-29-3-57-11-61-18-7-11-11-11-23-1-10 7-18 8-21 2-4-5-31-13-61-16-52-7-55-9-55-36 0-16-4-29-10-29-5 0-10 23-10 51 0 51 0 51 45 47 29-2 46 1 50 9 2 7 19 13 37 13s55 7 82 15 65 15 84 15c18 0 48 7 65 16 18 9 39 20 47 24s17 22 18 41c7 61-10 359-19 353-5-3-9-1-9 5 0 5 5 13 10 16 6 3 10 25 10 48v77c1 19-3 78-9 130-5 52-6 100-3 105 4 6 5 20 3 33-1 13 3 30 9 37 7 8 9 26 6 40-7 28 18 75 40 75 8 0 14 7 14 15 0 10 10 15 33 15 39 0 57 15 57 46 0 13 4 26 10 29 5 3 10 24 10 46 0 53 20 50 22-3 1-24 3-52 4-63s2-26 3-33c1-9 6-10 20-2 11 5 32 10 47 10 37 0 144 32 144 43 0 5 9 5 20 2 13-4 31 0 46 10 18 12 29 13 38 6 16-13 75 2 108 28 30 24 93 37 102 22 5-7 46-10 114-9 59 1 101 3 94 6-18 6-15 19 6 24 14 4 17 13 14 39-2 19-3 45-2 59 4 89 2 112-15 124-18 13-18 14-1 23 19 11 19 44-1 50-7 3-22-7-34-21-16-18-33-26-55-26-18 0-35-4-38-9-3-4-33-11-66-15-41-5-60-11-60-21 0-19-18-29-33-17-25 19-87 24-93 7-5-12-20-16-63-15-31 0-105-4-166-9-60-5-118-10-128-10-14-1-17-6-12-21 5-17 2-20-24-20-16 0-33 5-36 10-8 13-95 13-95 0 0-5-8-10-18-10-9 0-34-9-55-20-40-22-87-27-87-9 0 8-4 8-13 1-22-17-100-29-131-19-21 7-38 5-69-9-55-24-58-29-55-94 2-30-1-57-7-60s-11 26-13 75c-2 44-7 84-12 89-19 19-12-523 6-578 15-44 15-50-1-79-11-21-15-49-13-82 3-50 3-50 31 2 15 29 27 59 27 68 0 15 15 21 23 8 2-5 2-1-1 7-2 8-6 35-9 60-2 25-8 54-12 65-33 84-56 295-32 295 13 0 21-27 21-73 0-23 7-54 15-70 7-15 16-51 18-80 7-73 27-160 41-170 8-6 8-10-1-14-7-2-13-13-13-23s-6-20-14-23c-18-7-27-58-14-75 6-7 8-15 4-19-3-3-6-1-6 5 0 21-16 13-28-14-9-19-17-24-32-19-20 6-21.294-2186.56-21.294-2186.56V0S1419.16 4.505 1410 10c-8 5-38 10-67 10-28 0-55 5-59 12-5 8 1 9 22 5 16-3 42-3 57 0 28 5 28 5 6 21-22 15-22 15-1 31 11 9 24 28 27 44 6 24 4 27-16 27-13 0-35-9-49-20-26-20-50-26-50-12 0 12 23 32 37 32 19 0 109 604 110 682 0 78 4 143 9 144s20 5 34 8c25 5 25 5 22 2818-3 2614 2 3241 24 3307 3 10 8 11 15 4 6-6 6-167 0-474-6-255-13-1632-16-3059-6-2573-7-2769-27-2781-6-4-8-11-4-17 3-5 8-104 11-220 2-116 6-217 7-224 2-8-7-13-22-13-25 0-25 0-28-168-2-168-2-168 85-165 88 3 1002-1 1258-2 297-1 297-1 339 33 22 18 70 53 106 77 36 23 70 48 75 54 6 6 30 25 55 42 183 127 325 228 458 326 72 54 135 98 138 98 4 0 21 12 39 28 18 15 68 52 111 82 44 29 99 70 124 90s52 39 60 42 46 29 83 57 70 51 74 51c7 0 86 62 98 78 6 7 21 11 35 10 24-3 24-3 21 922-1 509-4 927-6 928-22 23-25-68-25-910 0-597-3-905-10-912-6-6-11-6-11 0-3 18-5 59-7 120s-2 61-37 67c-27 5-44 0-76-21-41-27-41-27-18-45 29-24 17-33-23-16-24 10-33 10-36 1-2-6-18-19-36-27-17-8-40-29-50-45-18-31-36-40-36-17 0 7 6 19 13 27 6 7 1 6-13-4-27-18-27-17-29-73-2-34-3-35-11-15-5 12-13 22-17 22-15 0-73-46-73-58 0-8-7-11-18-8-11 4-27-2-41-15-12-11-29-18-37-15-9 3-14-1-14-13 0-10-7-21-15-25-20-7-19-26 1-26 8 0 12-5 9-10-5-8-11-7-21 1-11 9-18 8-29-1-12-10-19-10-27-2-7 7-20 12-30 12-16 0-16-3-6-20 9-15 20-19 35-15 12 3 24 1 27-4 8-12-41-20-52-9-13 13-52-12-52-33 0-23-84-47-105-29-8 7-15 9-15 6 0-10 23-32 39-37 8-3-5-11-28-18-23-6-45-19-48-27-7-19-22-18-31 4-6 16-10 16-32 5-14-7-19-13-10-13 20 0 48-32 42-49-3-9-13-4-32 14-40 38-56 27-19-13 32-34 32-40-2-20-17 10-23 10-26 1-3-7-10-13-18-13-7 0-18-7-25-15-13-16-50-21-50-7 0 4 5 13 12 20 9 9 9 12 0 12-7 0-12-4-12-10 0-5-7-10-15-10-18 0-20-17-3-22 7-3-7-8-32-12-25-5-39-10-32-13s17-13 23-24c9-17 7-19-13-14-16 4-27 0-35-14-11-17-10-19 2-15 8 4 18-1 21-10s13-16 21-16 12-4 8-9c-3-6-21-1-42 12-26 15-38 18-41 9-4-13-32-17-32-4 0 5 16 23 36 40 20 18 30 32 24 32-7 0-359.24-260.748-368.24-269.748-11.95-13.448-176.88-128.968-281.35-201.428C2615.12 25.796 2570.31-4.104 2565.29.915c-.89 1.042 144.55 117.22 192.99 152.18C3035.22 352.997 3984.48 1013.63 4073 1063c17 11 41 27 53 38 11 10 23 19 27 19 7 0 153 101 179 124 10 9 29 18 44 22 19 5 24 11 21 26-4 15-1 18 15 12 14-4 32 4 58 25 21 17 43 31 48 31 31 0 32 32 32 761-1 404-1 746-1 761 0 23-4 28-24 28-29 0-351.76 38.27-362.76 29.27-8-7-273.44 21.13-304.22 19-39.86-2.75-97.93-2.59-206.04 21.9-86.4 19.57-182.42 8.84-183.46 14.52-3.51 19.12-157.27 4.65-271.99 24.82-41.01 7.21-140.19 34.21-178.12 59.16-67.77 44.56-76.74 77.64-71.61 68.03 44.29-.76 130.2-93.7 283.2-100.7 296-14 549-27 600-31 30-2 154-9 275-14 121-6 292-15 380-21 88-5 259-14 380-20s337-17 480-25 325-17 405-20 262-12 405-20c143-9 395-22 560-30 312-16 753-38 1080-55 402-22 577-30 777-39 113-6 222-13 241-16 34-7 34-6 46 39 6 24 11 52 11 60 0 19-23 21-38 3-13-15-240-13-342 3-36 5-172 12-303 15-131 2-244 8-250 12-7 4-70 11-142 15-71 4-211 12-310 18-99 5-225 13-280 16s-187 7-292 8c-106 0-193 5-193 9 0 5 9 5 20 2s20-2 20 3c0 6-52 9-122 8-119-1-473 16-628 31-41 4-118 6-170 5s-140 3-195 8c-55 6-194 13-310 16-115 3-212 7-216 10-6 3-594 32-654 32-11 0-106 5-212 11-105 6-204 11-220 12-46 0-328 18-465 30-70 6-180 9-246 8-65-1-124 1-131 5-6 4-44 7-84 6-39-1-93 1-118 5-10.02 1.67-14.22 8.21-21.64 8.4-14.78.36-28.7-7.74-31.36-12.4-4-6-20-11-36-11s-32-4-35-10-17-10-30-10-27-5-30-10c-3-6-16-10-28-10-24 0-93-22-103-33-4-4-22-7-40-7s-36-5-39-10c-3-6-17-10-30-10s-27-4-30-10-16-10-27-10c-20 0-64-12-113-30-11-4-40-13-65-20-90-23-185-52-202-61-10-5-25-9-35-9-19 0-79-18-105-31-10-5-30-9-45-9-25-1-26-2-10-14 11-8 17-27 17-50s5-39 15-42c21-9-21-17-23 14-3 42-12 49-45 36-11-4-13-13-7-40 7-29 5-37-9-42-16-6-17-11-5-42 7-19 13-28 13-19 1 19 2-59-4-58-21 4-58-44-59 84-1 100 1 113 16 113 9 0 20 5 23 10s18 10 31 10c16 0 24 5 21 13-5 14-31 12-65-5-33-17-53 5-21 23 36 20 91 39 116 39 12 0 25 5 28 10s17 10 30 10 27 4 30 10c3 5 22 10 41 10s34 5 34 10c0 6 13 10 29 10 17 0 33 5 36 10 3 6 22 10 41 10s34 4 34 9c0 8 22 15 98 28 18 3 35 9 38 14s16 9 29 9 27 5 30 10c3 6 21 10 40 10s37 5 40 10c3 6 17 10 30 10s27 5 30 10c3 6 19 10 35 10s32 5 35 10c3 6 17 10 30 10s27 5 30 10c3 6 19 10 36 10 16 0 37 4 47 9 28 14 87 31 108 31 11 0 25 5 32 12 11 11 321 2 772-23 184-10 637-33 950-48 387-19 805-41 895-46 82-5 434-22 935-45 107-5 294-14 415-20s263-12 315-15c52-2 140-7 195-10s168-7 250-10c83-3 283-12 445-20 162-9 392-20 510-25 118-6 227-13 241-16 24-5 28-2 42 38 9 23 32 88 52 143 109 301 181 484 210 534 67 112 171 209 198 182 7-7 2-21-16-45-26-33-34-56-21-56 3 0 29 21 57 46 56 50 106 78 230 128 166 67 575 146 753 146 92 0 110 11 65 38-32 19-31 32 0 32 17 0 49-45 49-69 0-5-29-13-65-16-53-6-63-10-55-21 9-10 0-12-52-11-83 2-228-23-235-40-3-7-19-13-37-13-17 0-53-7-80-15s-66-15-87-15c-34 0-60-8-136-43-12-5-29-7-38-3-10 3-27-2-42-14-20-15-29-17-39-9-19 16-31-16-14-37 11-12 8-12-16 2-28 16-30 16-76-12-36-22-46-33-41-48 5-17 1-18-28-12-28 5-36 2-65-29-36-39-49-43-63-17-8 14-12 15-22 4-7-6-10-12-6-12s-3-17-16-37c-13-21-29-53-36-70-8-18-17-33-21-33s-10-12-13-27c-6-32-53-173-72-218-7-16-20-52-29-80-9-27-25-68-35-90s-25-62-34-90c-8-27-25-75-37-105-11-30-28-75-36-100s-19-54-24-65-21-56-35-100c-22-66-92-252-124-330-5-11-14-40-21-65s-16-56-20-70c-41-123-67-347-51-435 37-210 54-295 77-400 14-66 39-183 56-260 44-208 45-213 67-308 30-127 26-301-7-295-11 2-15 20-16 73-2 80-9 98-37 90-15-5-19-1-19 16 0 54-34 225-46 235-19 15-18 41 2 52 14 8 13 10-8 15-21 6-26 15-31 49-3 24-2 45 4 46 18 7 9 49-16 72-16 15-25 35-25 54 0 17-12 87-25 155-14 69-23 127-20 129 2 3-2 16-9 31-12 23-29 141-43 302-7 72 12 241 33 299 9 25 20 61 25 80 12 51 61 188 84 237 14 30 26 41 40 40 15-2 21 5 23 28 2 29 2 29-13 11-27-36-13 37 21 109 14 29 14 28 9-30-6-60-6-60 14-20 11 22 23 55 27 73 3 18 10 35 15 38 15 9 10 34-6 34-9 0-15 9-15 21 0 45-27 16-67-75-18-39-18-39-151-37-121 2-135 4-156 24-25 24-102 104-141 102-38-3-71-10-73-15-2-6-15-10-29-10-21 0-24 2-13 15s6 15-32 15c-24 0-53-7-64-15-22-16-64-20-64-5 0 16-32 12-52-7-16-14-20-15-35-1-10 9-25 18-33 21-11 4-10 6 4 6 15 1 17 4 9 12-9 9-19 9-40 1-18-7-92-11-205-9-163 3-177 1-181-15-7-24-27-23-27 1 0 10-8 22-17 26-16 7-181 15-300 14-24 0-43 5-43 11 0 5-7 10-15 10-20 0-19-10 3-27 15-13 14-14-13-8-16 4-47 7-67 6-20 0-40 4-43 9-3 6-33 10-65 10s-60 4-62 10-19 5-46-2c-29-7-70-8-130-1-48 5-133 9-189 8-78 0-103 3-103 13s-40 12-195 9c-108-2-198 0-201 5-11 17-52 7-68-17-21-32-32-32-40 0-4 17-14 25-29 26-105 4-340 20-375 25-26 4-48 2-56-5-10-9-21-8-42 1-16 7-74 13-129 15-341 8-414 12-433 22-26 14-102 14-102 0 0-6 14-9 31-7 37 4 40-13 5-25-21-7-30-2-59 29-23 25-39 35-50 31-16-6-17-67-17-746 0-739 0-739 83-745 110-7 289-23 417-36 58-6 157-15 220-21s156-15 205-20c50-5 140-14 200-19 115-10 279-26 355-35 25-3 97-10 160-16s125-13 138-15c18-4 25 1 33 24q10.5 28.5 54 51c24 12 45 27 48 34 3 8 10 6 25-7 12-10 28-16 37-12 19 7 67-14 62-28-6-19-58-19-71-1-18 24-59 11-51-16 4-10 2-19-3-19-6 0-12 5-14 12-3 7-12 9-23 5-17-7-17-9 4-28 23-21 23-21-5-50-26-27-26-30-11-47 9-10 17-25 17-34 0-21 33-48 58-48 12 0 22-5 22-11 0-8 16-9 50-5 28 4 56 3 63-1 6-4 26-6 44-4 27 2 32-1 27-13-6-15 15-21 66-18 8 0 19-6 23-14s18-14 30-14 43-7 69-14c25-8 55-12 66-9 13 3 28-3 41-16 12-12 30-21 41-21 15 0 20-7 20-25 0-22 3-24 30-18 28 5 42-8 21-21-5-3-11-19-13-36-4-29-4-30 32-24 25 4 53-1 95-18 40-16 73-23 100-21 38 4 39 3 20-12-16-14-33-16-95-10-41 4-138 8-215 10s-171 8-209 14c-37 7-77 9-88 5-11-3-30-1-42 4-11 6-82 16-156 22-186 16-191 16-225 7-21-5-25-5-15 2 25 17 7 21-114 25-64 2-120 6-123 10-3 3-21 6-39 6s-36 5-40 11c-3 6-16 8-28 5-13-3-49-1-82 4-32 6-110 12-172 15s-124 10-138 15c-14 6-65 10-113 10s-91 3-95 8c-6 6-116 19-311 37-22 2-92 9-155 16s-176 13-250 14c-144 1-189-10-251-59-15-12-65-48-112-80-47-33-105-79-129-103-23-23-48-43-54-43-7 0-25-10-41-23-15-12-40-29-55-36-28-14-37-31-18-31 16 0 11-40-6-47-14-5-25 4-38 32-3 6-10 2-16-7-6-10-16-18-23-18s-18-9-25-20-19-20-27-20-15-4-15-10c0-5 5-10 10-10 6 0 10-5 10-11 0-8-5-8-15 1-16 13-65-10-65-30 0-6-6-10-14-10s-39-20-69-45c-31-25-63-45-72-45-11 0-15-5-12-14 4-10-4-17-25-21-16-4-49-25-72-46-22-21-45-39-50-39-4 0-6-7-2-15 3-8 1-15-3-15-5 0-11 5-13 11-2 7-15 4-36-8-33-20-33-33 0-33 11 0 16-4 13-10-3-5-25-10-48-10-33 0-50-7-77-30-29-25-31-30-12-25 14 4 22 2 22-6 0-7-10-10-28-6-22 5-41-4-99-46-39-29-79-57-89-64-15-9 680-12 3086-11 2582 0 3097 2 3060 13-39 12-42 14-22 20 21 7 21 8 5 20-15 11-13 13 17 20s31 8 14 18c-10 5-20 11-21 12-2 1 2 17 8 36 18 59 21 157 5 166-9 5-16 28-18 57-2 35-8 52-22 60s-20 8-23-1c-3-7-13-13-22-13-10 0-28-11-41-25-25-26-45-32-55-15-10 16 28 59 53 60 12 0 30 9 39 20 10 11 23 20 30 20 15 0 103 86 103 101 0 5-4 9-10 9-5 0-10-5-10-11 0-7-12-9-36-4-30 5-36 4-31-8 8-21-82-35-94-15-5 8-4 14 4 17 20 6 57 44 57 58 0 9 11 13 32 11 18-1 33 3 36 10 2 6 12 12 23 12 21 0 66 24 142 75 39 26 54 32 64 23 10-8 12-7 8 4-7 18 70 82 90 74 9-3 12 0 9 8s8 18 28 27c18 7 39 19 46 26s24 13 37 13c18 0 23 4 19 15-4 8-2 21 3 28 15 18 24 75 13 82-6 3-10 0-10-8s-12-23-26-33c-63-46-119-88-124-93-3-3-30-19-60-35s-62-35-71-42c-8-8-19-14-23-14-3 0-42-21-86-46-83-48-238-98-260-84-23 14-2 39 47 53 26 8 80 30 118 49 39 19 86 41 105 48s44 21 55 30c11 10 35 22 53 28s51 25 72 42c21 16 42 30 47 30 13 0 93 62 93 72 0 14-28 8-34-7-3-8-10-15-17-15-6 0-57-23-113-50-56-28-105-50-109-50s-20-8-34-17c-14-10-40-16-56-14-24 2-29 0-24-13s-1-16-32-16c-22 0-41-5-43-11s-19-12-38-13c-46-4-83-24-76-41 7-19-16-25-37-10-33 24-3 90 46 100 18 3 59 15 92 25s83 25 110 33c50 15 152 51 190 67 11 4 54 23 96 40 42 18 82 31 89 28 7-2 27 9 44 24 17 16 36 26 43 24 9-4 10 1 4 18-7 17-5 25 10 34 10 7 19 16 19 22 0 12-30 1-49-17-7-8-16-12-18-9-6 5 22 36 32 36 3 0 17 12 31 27 13 14 27 23 30 20 4-3 21 5 38 18 25 19 35 22 44 13 19-19 62 10 62 41-3 236-32 486-61 516-5 5-9 24-9 42s-4 33-10 33c-5 0-10-18-10-39 0-22 5-43 10-46 6-3 10-35 10-70s5-67 10-70c14-9 12-136-3-160-49-82-104-127-242-196-112-57-433-158-585-186-50-9-128 69-128 128-1 34-17 112-26 127-7 12-13 42-33 162-3 19-9 40-14 45-10 13-20 172-12 193 8 20 21-10 22-51 1-15 5-35 10-45 33-64 52-113 47-121-3-5 6-16 20-26 24-16 25-18 9-35-15-16-16-31-10-97 6-69 9-75 21-58 13 17 14 16 14-17 0-40 17-59 31-37 6 10 9 6 9-14 0-24-3-27-25-21-28 7-32-3-11-32 13-16 18-17 35-7 26 16 42-4 18-22-21-15-22-25-2-25 8 0 15 5 15 10 0 6 15 8 38 4 20-3 55-1 77 5 22 5 58 14 80 20 22 5 41 15 43 20 2 6 19 11 38 11 36 0 89 18 169 56 28 13 56 24 63 24 8 0 45 19 84 43 39 23 84 49 102 58 51 27 72 118 58 257-6 59-16 131-23 160-12 49-12 55 4 64 15 8 18 21 16 81-2 40-7 75-11 78-5 3-11 66-14 140-4 113-2 143 15 196 18 59 18 73-1 73-33 0-66-327-38-379 14-27 21-109 13-151-7-35-7-35-21 25-8 33-16 83-19 110-3 28-9 55-14 61s-6 69-3 139c6 118 9 132 35 177 16 27 29 58 29 68 0 11 7 20 15 20s15 9 15 20 9 43 20 72 23 76 26 105c5 35 11 50 19 47 14-6 25 26 25 74 0 19 6 46 14 60 17 33 46 128 46 152 0 10 6 23 13 29 8 6 19 30 26 53 7 24 17 57 23 73 5 17 16 57 24 90s21 74 28 90c8 17 21 57 29 90 30 115 51 180 60 186 5 4 7 13 5 20-3 8 4 27 15 43 19 26 19 30 4 41-17 12-92 1-150-23-16-7-41-12-57-12-15 0-41-7-56-15-16-8-50-18-76-21-27-4-48-11-48-17s-20-7-55-3-55 2-55-4c0-5 6-11 13-11 6-1-17-5-52-9-42-5-68-13-77-24-8-11-20-15-35-11-15 3-37-2-57-15-29-18-32-23-20-37s10-16-15-11c-22 4-35-3-76-43-46-45-71-60-71-41 1 13 87 121 113 142 86 68 376 154 657 195 127 18 230 34 272 42 49 9 65-4 34-28-14-11-26-27-26-36 0-11-3-13-13-5-10 9-17-2-30-51-10-34-24-77-32-95s-15-46-15-62c0-17-4-39-10-50-5-11-14-29-20-40s-10-28-9-37c0-11 3-13 6-5 5 13 33 17 33 4 0-5-7-17-15-28-8-10-15-26-15-35s-9-45-20-80-25-80-30-99-19-66-30-105c-12-38-26-88-32-110-14-52-29-104-39-135-4-14-18-60-30-102-13-43-28-78-34-78-25 0-65-105-85-219-17-95-14-97 196-105 93-3 207-8 254-11s171-10 275-15c250-14 527-30 593-35 52-4 53-3 50 22-3 24-6 25-78 28-41 2-124 8-185 14-60 5-193 15-295 20-460 26-770 47-776 54-1 1 11 43 28 92 16 50 27 98 24 109-5 18 2 18 137 13 199-8 743-34 990-48 125-7 212-8 217-3 14 14 0 84-16 84-8 0-14 7-14 15s-9 15-20 15-20 5-20 10c0 6 13 10 28 10 38 0 42 6 30 43-6 18-14 61-19 97s-13 90-19 120c-5 30-12 80-16 110-3 30-9 64-14 75-8 19-14 56-27 171-5 51-5 51-117 58-61 3-259 8-441 11-345 6-411 10-420 26-12 18 63 39 140 39 71 0 76 1 85 25 11 30 34 34 25 5-5-14-2-20 9-20 9 0 15-5 14-12-2-8 15-12 50-13 37-1 52 2 52 12 0 15 16 17 25 3 4-6 64-9 149-9 79 1 147-1 152-3 17-10 104-19 104-11 0 4 11 13 25 20 14 6 25 7 25 2s10-10 23-10c16-1 18-2 5-6-28-7-21-23 10-23 28 0 28 0 29 408 0 224 4 644 8 935 8 527 8 527-621 527-346 0-690 2-764 5s-383 7-686 10c-621 6-555 80-569-650-13-742-18-866-33-881-11-12-34-14-106-9-50 2-260 9-466 15s-393 13-414 16c-39 6-39 6-32-137 4-79 11-148 15-152 5-5 90-7 190-5 181 3 181 3 181-23 0-23-12-34-89-78-90-50-90-50-453-40-625 17-668 19-668 39 0 15 15 25 123 82 18 9 38 22 46 29 12 11 195 14 271 5 14-2 33-4 43-5 24-1 22-21-3-21-11 0-20-5-20-10 0-10 48-4 60 7 10 10-2 298-13 305-6 4-61 5-121 4-65-2-132 2-161 9-27 7-102 13-165 14s-200 6-305 11c-104 5-242 10-306 10-86 0-120 4-128 14-8 9-8 63-1 197 18 338 31 601 45 922 8 175 17 322 20 327 3 4-1 10-8 11-6 2-344 3-750 1-737-2-737-2-737-845v-854c0-7-7-13-15-13s-15 6-15 13c0 6 0 390 1 852s0 947-1 1078c-1 132 1 418 6 637 7 399 7 399 30 382 25-18 33-45 11-36-9 3-13-4-12-22 0-26 0-26 549-25 302 1 554 5 560 9s335 10 731 14c1162 12 2252 27 2370 32 61 3 331 8 600 11 820 9 1697 24 1716 30 40 13 49-46 49-320 0-379-12-795-22-789-5 4-1415 7-3133 8-1718 0-3121 4-3118 9 2 4-23 7-56 7s-63-5-66-10c-4-6-15-8-25-5s-21 1-25-5c-13-21-25-9-25 26 0 21 4 33 10 29 6-3 10 3 10 14 0 15-5 19-16 14-16-6-16 22-10 353 3 197 9 376 12 396 11 66 24 30 24-62 0-84 1-89 23-92 31-4 40-102 9-110-17-5-18-18-16-237 1-231 1-231 28-256 21-20 38-25 76-25 27 0 52-4 55-10 8-13 152-13 160 0 5 7 48 9 128 4 99-5 131-3 167 10 51 18 82 20 95 7 15-14 194-20 320-11 74 5 117 4 130-4 12-6 102-11 230-12 116-1 212-3 215-4 18-5 1275 3 1315 9 28 4 68 3 91-1 22-3 62-5 90-2 76 6 183 6 194-1 12-7 50 3 49 13-4 28 4 32 59 31 57-1 57-1 17-11-68-16-72-21-20-29 96-14 125-11 125 12 0 20 3 21 73 14 39-4 97-8 127-8 30-1 60-6 67-10 19-12 113-19 113-8 0 5-6 11-12 14-17 6-9 14 23 22 19 5 33 0 56-19 35-29 53-33 53-11 0 11 11 15 36 15 19 0 33-4 30-9s4-11 17-15c32-9 37-8 37 8 0 15 24 20 142 30 46 3 60 1 77-15 24-23 43-24 82-4 26 14 30 14 35 0 7-18 60-21 66-3 3 8 10 9 24 2 23-10 404-12 404-1 0 4 9 7 21 7 11 0 18-4 15-9-8-12 96-23 108-11 7 7 6 10-2 10-10 0-10 4 0 19 15 24 31 17 23-10-6-17-1-19 54-19 34 0 61 4 61 10s7 10 15 10 15-5 15-11c0-10 179-8 295 3 22 2 57 1 77-3 29-5 41-2 54 12 18 20 54 26 54 9 0-12 87-13 94-1 7 10 76 20 76 11 0-3-5-11-12-18-9-9 7-12 75-12 51 0 87-4 87-10 0-13 97-13 105-1 3 6-16 12-42 14-38 3-34 4 22 5 46 1 65-1 55-8-8-5-11-12-8-15 4-4 12-3 19 1 17 10 59 12 65 2 3-4 20-8 38-8 32 0 34 2 39 48 4 26 7 255 7 509 1 462 1 462-26 469-15 4-142 4-283 0s-627-11-1081-16c-454-4-834-11-845-14s-312-8-670-11c-1434-13-2360-26-3358-48-131-3-180-1-183 8-3 6-22 10-47 9-42-2-42-2-47-549-3-301-3-548 0-550 10-6 1486-8 1510-2 14 3 577 8 1253 9 1084 3 1228 1 1232-12s161-15 1326-17c1091-1 1323-4 1330-15 5-7 9-438 9-957-1-519 2-946 5-949s5 415 5 929c0 1702 4 2324 15 2327 6 1 12-14 15-34 5-36 5-36 27-6 13 17 20 37 17 45-8 21 23 90 38 85 36-12 19-118-27-164-23-23-23-23-27-621-4-632-3-649 40-641 20 4 24 39 9 82-6 20-9 233-8 576 2 480 4 551 19 595 17 49 17 42 22-325 3-206 4-1708 3-3337-3-2963-3-2963 97-2963s100 0 100 3415c0 1878-3 3415-7 3415-5 0-8 263-8 585 0 585 0 585-28 585-24 0-27-3-22-20 4-14 2-20-9-20-43 0-66-279-65-770 1-375 1-375-48-375-48 0-48 0-50 280-1 154-2 286-3 294 0 8-7 11-20 8-19-5-70 12-70 23 0 3 10 10 23 15 19 9 22 18 23 70 0 33 3 69 5 80 5 27-52 33-87 10-14-9-33-13-44-10-12 4-20 2-20-5 0-8-9-10-26-6-14 4-24 3-21-1 12-20-13-51-43-55-30-5-32-3-26 24 4 20 2 28-9 28-15 0-47 39-40 50s80 20 220 26c72 3 135 7 142 9 29 10 47 70 48 165 3 138 3 136 30 148 58 27 23 32-210 32-129 0-235-4-235-8s5-13 12-20c9-9 8-18-2-38-13-23-13-27 3-39 24-17 21-28-13-48-17-10-29-25-28-35 4-29-14-132-23-138-5-3-5-13 1-24 13-24 13-26-7-45-10-11-17-35-17-66-1-26-6-53-13-60-6-6-9-18-6-25 3-8-1-29-8-47-16-39-69-96-69-73 0 8 5 18 11 22 6 3 9 20 6 38-3 22 1 37 15 53 16 17 18 25 8 43-9 16-9 25 0 35 7 9 9 26 5 45-6 27-4 31 12 28 14-2 19 4 21 35 2 21-1 37-7 37-13 0-14 42-2 55 12 12 43 168 43 212-1 23 5 34 19 38 10 4 19 11 19 16s-1186 9-3090 9c-1699 0-3090-4-3090-9 0-14 141-21 454-22 206 0 291-4 271-10-17-6-113-8-220-5-117 3-197 0-208-6-13-7-23-6-30 1-12 12-66 15-91 5-30-12 3-34 50-34 24 0 44-4 44-10 0-5-5-10-12-10-6 0-20-7-30-16-12-12-21-14-30-7-7 6-53 18-103 28-49 9-94 21-100 25-33 27-207 31-785 20-22-1-23-2-7-11 25-15 11-29-28-29-25 0-35 5-40 20-5 17-15 20-66 20-32 0-59 4-59 9s61 10 135 13c88 2 139 8 147 16 9 9-159 12-795 12-531 0-807-3-807-10 0-5 21-10 48-10 134 0 242-13 240-28-3-18 30-27 138-37 64-6 71-9 67-26-5-17 1-19 43-19 27-1 67-7 89-15s51-15 65-15 40-9 58-20 45-20 60-20 36-6 47-14c11-7 41-16 68-20 26-4 47-11 47-15 0-5 12-11 28-14 63-13 85-26 71-43-16-20-73-13-100 12-11 9-19 15-19 12s-33 1-72 9c-40 8-94 18-120 23s-56 13-67 19-30 11-42 11-30 6-38 14c-9 8-35 16-59 19-23 2-48 9-54 15-7 7-23 12-35 12-13 0-35 7-48 16-14 9-35 14-47 11-12-4-29 0-38 7-19 16-88 36-125 36-18 0-28 6-32 20-3 11-11 20-19 20s-11-6-8-15c8-20-29-20-45-1-7 8-42 17-82 21-62 6-69 9-64 26 6 19-21 19-1244 19C0 8000 0 8000 0 7954m7149 10c26-9-4-24-57-31-41-4-53-3-57 10-4 9-14 13-26 10-10-3-16-9-13-14 13-22-9-28-36-9-15 11-42 20-59 20-19 0-31 5-31 13 0 12 242 13 279 1m565 2c27-8 55-21 64-29 29-24 56-26 300-11 130 7 287 13 349 14 63 0 114 4 118 10 3 6 19 10 34 10s31 4 36 9c6 5 44 5 85 2 69-6 72-7 35-13-70-12-150-22-159-20-19 6-46-11-46-28 0-23-13-32-54-37-33-5-36-5-166-4-47 1-119-3-160-8-41-6-122-8-180-5-58 2-127 4-155 4-41 0-56 6-84 30-34 30-61 39-61 20 0-5-5-10-11-10s-9 6-6 13c12 31-31 38-244 37-132 0-209 3-209 10 0 6 85 11 228 13 125 1 230 3 233 5 3 1 27-4 53-12m2511-12c0-25-52-33-62-9-7 20 13 35 42 31 12-2 20-11 20-22m-9655 2c-10-13-31-14-143-7-10 1-16 5-13 10s42 9 87 9c66 1 79-1 69-12m822 4c-28-12-607-21-595-9 11 11 107 15 388 16 146 1 222-2 207-7m912 0c14-5 26-14 26-20 0-13-87-13-95 0-4 6-91 10-228 10-122 0-265 1-317 2-95 3-95 3-98-25-4-34-22-36-22-2 0 24-3 25-55 25-30 0-55 5-55 10 0 13 809 14 844 0m739-1c-8-8-19-8-40-1-28 10-28 10 12 11 28 1 36-2 28-10m797 1c0-6-77-10-210-10s-210 4-210 10 77 10 210 10 210-4 210-10m2893 1c31-12 35-26 10-35-11-5-22-1-30 9-8 13-20 15-42 10-31-7-43-25-17-25 8 0 18-4 21-10 4-6-14-10-46-10-49 0-51 1-33 15 16 13 17 16 4 25-14 9-33 11-155 15-22 1-47-5-57-12-11-10-18-11-23-4-3 6-28 11-56 11-46 0-49-2-49-25 0-14-4-25-10-25-5 0-10 11-10 25 0 25-1 25-79 25-49 0-83-4-87-11-5-8-29-10-77-5-73 7-91 12-82 26 7 12 786 13 818 1m2201 0c8-13-41-23-75-16-16 4-27 11-23 16 7 12 91 12 98 0m76-6c0-9-9-15-24-15-30 0-43 17-19 23 34 9 43 7 43-8m345 5c3-5-2-10-12-10s-28-3-40-6c-17-5-23-2-23 10 0 18 64 23 75 6m105-5c0-8-7-15-15-15s-15 7-15 15 7 15 15 15 15-7 15-15m-8765-5c-3-5-17-10-31-10-13 0-24 5-24 10 0 6 14 10 31 10s28-4 24-10m8979-5c4-10-1-15-14-15-20 0-26 11-13 23 10 11 20 8 27-8m899-1c21-8 23-24 2-24-8 0-15 5-15 10 0 6-7 10-15 10s-15 5-15 11 6 8 13 5c6-3 20-9 30-12m162 6c-3-5-17-10-31-10-13 0-24 5-24 10 0 6 14 10 31 10s28-4 24-10m590 0c4-6-5-10-19-10s-26 5-26 10c0 6 9 10 19 10 11 0 23-4 26-10m-1325-19c0-5-8-11-17-13-25-6-54 3-47 13 7 12 64 12 64 0m1398-34c23-19-17-31-108-33-47-1-92-5-101-9-31-12-94-1-97 17-4 22 16 27 127 33 51 2 96 6 98 9 8 7 66-5 81-17m-5484-3c4-10-1-25-11-36-18-20-24-20-110-2-33 6-46 24-19 24 7 0 27 7 42 15 39 20 90 19 98-1m-1759-3c3-6 27-13 53-17s61-14 77-22c73-37 163-42 525-27 180 7 230 1 230-29 0-16-33-24-115-28-34-2-49-7-48-15 3-14-23-18-29-4-4 12-48 24-48 14 0-5-41-8-91-8s-114-6-142-13c-53-14-127-7-215 20-26 8-36 7-45-5-25-30-47-29-47 4 0 32-34 54-65 43-10-4-15 0-15 10 0 11-9 16-26 16-14 0-37 9-51 20s-34 20-44 20c-11 0-19 7-19 15 0 17 104 22 115 6m6074-27c14-37 7-109-9-99-5 3-12 21-16 40-3 19-9 35-13 35s-8 14-8 30c0 43 30 40 46-6m-3129-10c0-8-7-14-15-14-15 0-21 21-9 33 10 9 24-2 24-19m-1631 3c12-15 5-27-16-27-7 0-13 9-13 20 0 23 13 26 29 7m921-2c0-18 0-18-41 0-34 14-34 14 4 15 26 0 37-4 37-15m-2390-19c0-19-14-28-34-20-13 5-14 9-5 20 15 18 39 18 39 0M90 7754c25-4 169-9 320-10 309-3 380-6 380-15 0-12-119-30-153-24-24 5-37 2-47-10-9-11-22-14-43-9-16 3-49 1-73-6-36-10-48-10-66 1-29 18-98 13-98-7 0-17-41-19-57-3-6 6-29 13-50 14s-60 6-86 10c-38 6-52 4-67-10-26-23-36-13-38 36-2 48 5 64 21 51 7-6 32-13 57-18m1104-9c63-10 45-35-25-35-46 0-49 2-49 26 0 18 4 25 14 21 7-3 34-9 60-12m1623-10c31-4 54-2 58 4 8 15 68 14 100-1 24-11 30-19 20-29-9-10-13-689-4-695 5-3 6-10 3-16-11-18 19-28 89-28 51 0 69-4 73-15 4-9 19-15 40-15 24 0 32 4 28 13-11 30 25 35 321 42 165 4 359 8 430 10 72 1 182 6 245 9s173 8 243 11c133 4 143 7 165 37 13 18 14 18 41-1s38-20 202-12c133 6 177 4 188-5 18-16 16-394-2-406-21-13-379-9-406 5-23 12-23 14-22 160 2 127 0 148-14 153-9 4-141 3-293-2-277-9-277-9-280-105s-3-96 115-113c65-10 147-23 183-31 36-7 90-16 120-19 31-4 73-13 94-20 38-13 38-13 36-1042-1-566-3-1092-5-1169-3-165 22-142-210-185-27-5-77-14-110-20-33-5-82-15-110-20-71-15-174-35-310-60-27-5-74-14-102-20-83-16-143-27-208-39-33-6-82-16-110-21-27-6-72-14-100-20-27-5-72-14-100-20-27-5-75-14-105-20s-77-15-105-20c-27-5-75-14-105-20-30-5-77-14-105-20-27-5-77-14-110-20-33-7-78-16-100-20-83-17-161-32-205-40-132-24-169-31-215-40-27-6-75-15-105-20-30-6-76-15-102-20-98-20-148-26-148-18 0 4-1 11-1 16-2 7 49 20 116 28 22 3 49 9 60 14s38 11 60 15c22 3 64 10 93 15 28 6 77 15 107 20 126 23 163 30 213 40 28 5 76 15 105 20 28 6 75 15 102 21 28 6 70 12 95 15s54 9 65 14c19 8 40 12 145 26 25 3 54 9 65 14 19 8 40 12 145 26 25 3 54 9 65 14s38 11 60 15c22 3 64 10 93 15 28 6 76 14 105 20 52 9 112 21 210 41 28 5 72 12 97 15s54 9 65 14 38 11 60 14 64 10 93 15c108 22 159 32 212 41 30 6 80 15 110 20 30 6 83 15 118 19 35 5 64 10 66 12s7 245 10 539c4 294 9 536 11 539 10 9 5 1220-4 1226-6 3-52 10-103 15s-144 19-206 29c-63 11-120 17-127 15-7-3-24 2-37 10-14 9-27 14-30 11s-20 8-37 26c-30 30-31 34-30 110 2 43 0 81-3 84-7 8-37 8-258 1-350-10-433-16-452-33-15-13-20-13-49 1-17 9-35 14-39 11-6-4-217 30-464 76-61 11-160 29-221 40-60 11-132 24-160 29-27 6-77 14-110 20-33 5-105 19-160 30-215 44-338 64-372 62-26-2-32-22-7-22 14 0 15-144 9-1627-4-896-8-2286-9-3090-1-924 6.23-2249.757-.77-2256.757-16-16-38.26 420.925-44.26 463.925-3 22-16.97 409.832-20.97 409.832-10 0-9 641 2 669 5 16 5 28-2 35-11 11-14 148-4 159 10 9 12 237 3 243-15 9-11 712 4 716 9 4 12 319 14 1524 3 1632 8 2707 14 2739 4 19-1 20-91 20-95 0-95 0-101-180-6-200-6-200-20-165-6 14-7 55-4 97 7 71 7 71-49 83-65 13-70 23-19 36 34 8 37 12 40 48 3 53 13 59 13 8 0-23 5-42 10-42 6 0 10 26 10 59 0 68 15 87 64 83 28-2 30-1 13 12-27 21-9 27 101 33 83 5 99 9 116 28s24 21 43 12c13-5 23-16 23-22 0-12 71-25 140-25 20 0 44-6 55-14 27-18 86-26 108-14 27 14 53 2 37-17-11-13-7-15 22-15 19 0 38-4 44-10 5-5 125-50 159-46 40 4 56 2 65-9 7-8 19-15 26-15 17 0 19 20 2 21-7 0 167-7 300-21 52-5 100-14 108-21 17-14 16-24 19 144 2 75 7 136 12 135 4-2 6-24 5-50-3-31 0-48 7-48 10 0 10 198 1 220-1 3-1 55 0 116 2 106-8 147-25 106-7-14-9-13-14 8-7 25-7 25-144 22-126-3-199 7-157 22 37 13 127 13 237 1m-1513-1c18-7 12-24-10-24-8 0-14 7-14 15 0 17 2 18 24 9m1191-36c-18-22-25-41-25-73 0-24-5-55-11-69-11-23-7-30 40-81 71-79 66-128-19-164-14-6-32-15-40-19-63-36-65-1-85-6-17-4-25-2-25 7 0 22-45 40-83 34-19-3-39-1-44 4-4 4-34 10-66 11-31 1-57 5-57 8 1 32 110 47 191 26 74-19 161-27 198-20 28 6 31 10 31 45 0 57-15 61-183 53-174-8-248 8-204 44 12 10 213 27 280 24 27-1 27-1 23 55-3 31-10 61-16 67-20 20-12 56 14 56 13 0 26 6 29 14 6 14 53 26 70 18 4-2-4-17-18-34m7771-13c12-33 10-87-4-92-7-3-22 3-32 12-16 15-30 17-72 11-106-14-296-18-317-6-24 12-26 20-8 43 10 14 39 18 182 23 185 6 225 14 226 48 0 23 4 18 25-39m-7146 30c0-8-4-15-9-15s-14 7-21 15c-10 13-9 15 9 15 12 0 21-6 21-15m78-36c-30-8-42-1-28 16 9 11 16 12 31 2 19-12 19-12-3-18m5467-3c30-13 30-13 3-18-19-3-28-1-28 8 0 7-8 15-17 17-13 3-13 5-3 5 8 1 29-5 45-12m-7179-10c27-20 12-29-31-17-20 5-43 7-51 4s-22-2-31 3c-14 6-9 9 22 14 64 11 70 11 91-4m6902-11c264-13 425-14 408-4-23 14-5 29 38 29 23 0 27-3 23-20-5-21 4-24 51-20 26 2 52-16 52-36 0-10-17-13-67-11-170 5-594-11-608-23-19-16-19-30-1-30 8 0 30-14 48-30 33-31 33-31 213-24 351 13 424 12 436-2 14-16 3-36-19-33-23 2-82-12-82-20 0-3-3-17-7-30-6-24-5-24 48-17 71 10 90 10 179 1 41-4 96-8 123-9 26 0 47-5 46-11-1-5-5-9-10-8-5 2-17-5-27-15-16-16-28-18-72-12-29 4-96 3-149-1-53-5-168-10-255-11-133-2-163-5-180-20-21-17-21-17 6-44 31-32 9-30 323-20 139 4 236 3 244-3 22-14-136-25-370-26-224 0-243 4-251 59-2 17-12 22-53 27-27 3-43 8-35 11 39 14 88 28 100 28 7 0 24 12 37 26 17 18 30 24 46 20 23-6 57 18 57 41 0 16-36 18-46 2-3-6-17-9-30-6-13 2-24 0-24-4 0-5-7-9-15-9s-15 5-15 11c0 8-21 10-67 6-75-5-157 22-169 56-3 9-12 17-20 17-17 0-67 77-59 91 4 5 22 16 41 24 33 14 46 39 22 47-6 2-8 10-4 17 6 9 11 9 22 0 8-6 40-13 72-14m-6038 5c0-5-9-10-20-10-12 0-17-5-14-13 3-9-10-17-43-24-63-13-133-6-133 14 0 12 9 14 44 9 39-6 45-5 51 14 5 17 15 20 61 20 30 0 54-4 54-10m947-10c14-11 32-20 39-20 8 0 14-4 14-10 0-5-6-10-14-10-17 0-28-84-15-119 6-16 6-28 0-34-7-7-7-15 2-25 9-12 9-16 0-19s-10-10-4-22c5-9 9-26 8-36-2-17 9-23 63-36 36-10 80-17 98-18 17-1 32-5 32-10s12-11 28-13c15-2 27-7 26-13-1-13-31-19-52-10-9 4-37 9-62 10-239 12-227 3-223 163 3 81 9 161 14 178s7 38 3 47c-8 23 12 21 43-3m-1344-26c-8-20-33-17-33 4 0 10 3 22 7 25 10 11 32-13 26-29M66 7635c16-12 17-14 2-15-9 0-23-3-32-6-12-4-16 0-16 15 0 25 18 27 46 6m1577 5c17 0 27-5 27-15 0-12-13-15-55-15-39 0-55 4-55 13 0 21 12 29 35 23 11-3 32-6 48-6m5155-24c3-15 0-18-19-13-13 4-32 7-41 7-10 0-18 6-18 14 0 22 74 15 78-8m726 2c-15-7-28-7-40 1-16 9-12 10 21 10 35 0 37-2 19-11m-4084-8c0-5-9-10-19-10-11 0-23 5-26 10-4 6 5 10 19 10s26-4 26-10m2192-12c-7-7-12-16-12-20 0-12 108-10 131 3 16 8 26 7 45-6 29-19 140-29 150-14 3 6-2 16-12 24-11 7-16 17-11 21 4 4 13 2 19-4 7-7 22-12 35-12s23-4 23-10c0-15 41-12 99 7 41 13 56 14 77 5 33-16 22-32-22-32-19 0-34-4-34-10 0-5 10-10 23-10 12 0 49-9 82-19 50-16 60-23 63-44s0-24-23-20c-14 3-28 9-31 14s-24 9-47 9-69 5-102 11-69 11-80 11c-446-5-565 1-565 27s55 44 111 38c47-6 49-5 49 18 0 19 5 25 22 25s19-3 10-12m1743-14c11-8 20-26 20-41 1-24-1-25-43-20-58 6-67 17-42 50 24 31 37 33 65 11m-6978-21c3-8-9-11-36-10s-41 6-41 15c0 17 72 13 77-5m8598 7c7-12-20-42-29-33-3 4-6 15-6 25 0 19 25 25 35 8m53-23c2-12-3-17-17-17-12 0-21 6-21 13 0 31 32 34 38 4m-8460-4c-21-2-55-2-75 0-21 2-4 4 37 4s58-2 38-4m4518-61c-12-12-18 8-10 35 8 28 8 28 12 0 2-16 1-31-2-35m1516 38c15-14 17-20 7-20-15 1-49 23-49 34 0 12 21 6 42-14m3678 5c12-8 13-42 1-49-12-8-38 15-46 41-5 18-3 21 15 18 11-2 25-7 30-10m200 5c11-7 7-10-18-10-20 0-31 4-27 10 8 13 26 13 45 0m249 1c9-6 10-10 2-16-16-9-44 2-36 15 8 12 16 12 34 1m-2979-56c11-13 8-15-14-15-25 0-33 10-19 23 10 11 19 8 33-8m-3880-10c0-9-9-15-25-15s-25 6-25 15 9 15 25 15 25-6 25-15m348-12c-4-22-22-20-26 1-2 10 3 16 13 16s15-7 13-17M40 7434c0-14-4-23-10-19-5 3-10 15-10 26 0 10 5 19 10 19 6 0 10-12 10-26m1975-1c-8-34-11-37-24-28-23 14-11 55 17 55 10 0 12-7 7-27m7765 7c0-11-4-20-9-20-11 0-22 26-14 34 12 12 23 5 23-14m-8740-5c0-10-10-15-26-15-22 0-25 2-14 15 7 8 19 15 26 15 8 0 14-7 14-15m-660-17c52-6 113-11 135-12s56-7 75-13 64-14 100-18c36-3 76-13 89-22 15-9 34-13 53-9 16 3 49 0 74-6 37-10 47-10 53 1 7 11 13 11 32-3 16-11 44-16 87-16 64 0 102-12 102-31s-234-4-381 24c-75 14-190 30-255 37-66 6-137 16-159 21-22 6-82 16-132 22-83 9-93 12-93 30 0 22-20 22 220-5m5215-14c56-12 109-14 270-8 229 8 209 8 299 1 38-3 72-10 75-14 3-5 22-16 41-26 35-17 35-17-12-17-44 0-65-15-35-25 6-3 71-1 142 3 72 4 162 4 200-1 39-4 92-10 119-12 48-3 76-18 62-32-4-5-87-8-184-8-98 0-275-4-394-9-196-8-218-8-218 7 0 18 13 23 83 33 39 5 45 9 36 20-17 21-115 19-128-3-8-15-11-15-26-3-13 10-38 14-92 11-41-1-79 2-86 8-9 6-27 7-55 0-33-7-47-6-65 5-14 10-38 14-65 11-39-4-42-3-42 20 0 14-9 30-20 37-27 17-25 32 3 23 12-3 54-13 92-21m-3515-29c0-8-7-15-15-15s-15 7-15 15 7 15 15 15 15-7 15-15m4962-13c-7-2-12-13-12-24 0-14-5-18-16-14-9 3-27 6-40 6-14 0-22 4-19 10s14 10 24 10 24 6 31 14c6 8 19 12 28 9 10-4 12-8 4-11m-3052-44c33-21-2-40-57-32-69 10-95 41-51 61 23 10 63-1 108-29m-303 5c18-38 10-39-28-4-33 31-33 31-9 31 17 0 29-9 37-27m143 17c0-5-27-8-59-7-33 0-57 5-55 9 7 11 114 10 114-2m6475-10c22-25 9-39-35-40-14-1-98-3-187-5-165-5-213 2-213 30 0 24 36 29 260 33 148 3 157 2 175-18m-8606-6c2-2-19-4-47-4-29 0-52 4-52 9 0 8 90 3 99-5m2490-13c9-6 10-11 2-15-27-17 7-26 93-26 98 0 148-15 152-45 3-20-24-31-39-16-6 6-25 11-43 11-17 0-37 6-43 14-6 7-42 16-81 20-69 7-70 8-70 37 0 30 6 34 29 20m819-8c-3-18-17-19-112-14-42 2-21 19 29 24 85 8 87 8 83-10m4257 8c8-14-13-24-33-16-14 5-14 7-2 15 19 12 27 12 35 1M31 7237c-8-8-11-1-11 24 0 46 14 60 18 19 2-18-1-37-7-43m494 38c33-8 79-14 103-15 24 0 53-5 65-12 36-20 180-38 387-49 178-9 225-17 207-35-29-30-619 18-644 52-9 12-21 14-52 9-28-5-50-2-72 9s-46 14-83 10c-70-9-82-7-118 10-17 9-53 16-79 16s-55 3-65 7c-69 26 239 25 351-2m7345-6c0-5-11-9-25-9-27 0-32 9-13 28 12 12 38-1 38-19m3417 5c3-9 6-133 7-275 1-224-1-259-14-259-8 0-96-2-195-4-99-3-373-8-610-11-236-3-501-8-587-10-158-3-158-3-158 183 0 103-4 193-8 199-7 10-62 11-268 3-142-5-361-12-485-16-125-3-233-10-240-15-14-8-18-68-19-287 0-90-1-93-21-90-21 3-22 6-20 168 1 91-3 181-9 200-9 30-7 37 13 57 22 22 29 22 422 33 643 17 695 17 704 6 5-6 4-44-1-85-5-40-7-130-6-200 3-118 4-126 23-126 13 0 21 8 23 22 3 18 10 22 43 21 27 0 39-5 39-15 0-9 7-13 18-11 9 2 16 10 14 16-3 18 28 27 38 12 10-17 53-21 62-6 5 7 12 5 20-7 11-15 18-16 41-8 15 6 27 15 27 21 0 14 23 12 56-5 19-10 30-11 35-4 4 7 57 11 138 12 96 0 134 4 142 14 15 18 49 17 49-2 0-18 27-20 32-3 3 8 47 13 139 15 74 1 158 6 187 9 43 5 52 3 52-9 0-11 10-15 33-15 41 1 51 7 37 23-11 13-4 45 11 45 4 0 12-6 16-13 8-13 102-53 107-46 38 56 43 74 20 65-10-4-14-2-10 6 3 7 9 21 12 31 4 9 10 17 15 17 11 0 12 44 2 53-4 4-7 48-8 98-3 107-7 115-66 99-24-7-109-14-189-17-80-2-181-6-225-9-44-2-96-5-115-5-19 1-42-2-50-5-14-5-137-12-330-18-129-5-130-5-130-21 0-8-4-15-10-15-5 0-10 7-10 15 0 24-148 21-166-2-13-17-14-17-20 5-4 15-14 22-30 22-31 0-32 26-1 34 12 3 76 8 142 11 119 5 328 21 415 31 25 3 83 7 130 8 89 3 337 21 500 36 106 10 187 23 197 33 12 12 34 7 40-9m-4097-9c0-8-6-15-14-15-17 0-28 14-19 24 12 12 33 6 33-9m1017-6c-12-7-30-8-55-1-37 10-37 10 18 11 43 0 51-2 37-10m1037 5c28-11 17-24-20-24-31 0-35 2-24 15 14 17 21 18 44 9m-3589-24c-3-5-17-10-31-10-13 0-24 5-24 10 0 6 14 10 31 10s28-4 24-10m1155-3c0-33-32-78-53-75-25 4-36 28-13 28 9 0 19 8 23 18 13 37 43 57 43 29m-2016-38c17-16-3-23-28-10-31 17-62 10-58-13 3-15-1-17-30-11-18 4-42 14-53 21-24 17-117 18-133 2-9-9-12-8-12 4 0 10 10 18 23 20 44 6 282-4 291-13m86 6c7-8 19-15 27-15s12-4 9-8c-6-11-77 0-76 11v17c0 15 26 12 40-5m-621-10c123 0 115-20-9-23-61-1-100 2-100 8s-7 10-15 10-15 5-15 11c0 8 9 8 28 3 15-5 65-9 111-9m1114 1c5-11-8-15-56-18-73-4-69-5-61 16s109 23 117 2m-1897-6c69 0 104-4 104-11 0-6-9-13-20-16s-20-14-20-24c0-11-4-19-10-19-5 0-10 7-10 15 0 17-31 20-60 5-11-5-29-15-40-20-14-7-20-7-20 1 0 6-10 9-22 7-13-2-22-9-20-16 1-6-5-12-13-12s-15 3-15 8c0 4-14 8-32 9-19 2-42 13-58 28-25 26-25 26-5 41 15 12 34 14 79 10 32-3 106-6 162-6m2601-12c7-6 56-7 115-4 57 3 199 8 316 12 193 6 212 5 212-10 0-9-6-19-12-21-12-5-158-11-353-15-38-1-115-6-169-11-66-6-103-6-110 1-5 5-31 10-57 10-52 0-80 20-60 44 13 15 97 11 118-6m-547-12c0-16-24-38-33-30-8 9 11 44 23 44 6 0 10-6 10-14m-540-27c0-16-21-20-40-6-11 8-18 16-15 19 8 8 55-3 55-13m359 7c-11-9-69-14-69-6 0 6 17 10 37 10s34-2 32-4m3261-21c6-8 8-20 4-27-4-6-7-93-6-193 1-99-1-188-4-197-5-16-20-18-127-19-67 0-192-4-277-8-85-5-157-7-159-5s-3 82-2 178c2 159 0 176-16 184-11 5-81 6-173 1-85-4-248-8-361-8-165-1-209-4-218-15-8-9-13-73-14-190-2-176-2-176 118-171 266 11 596 16 629 9 20-3 36-12 36-19 0-14-74-21-335-31-82-3-197-9-255-13s-112-5-120-1-53 5-100 2c-47-2-182-6-300-8s-264-6-325-10c-149-8-746-4-765 6-8 4-56 7-105 6-50 0-104 2-120 5-30 7 85 13 230 13 39 0 63 2 54 3-10 2-20 14-23 26-8 32-7 385 2 390 4 3 291 15 637 26 347 12 783 28 970 35 187 8 392 15 455 16s117 3 120 5 100 5 216 6c115 1 229 5 254 9 67 11 67 11 80-5m-5840-5c-36-11-50-11-50 0 0 6 17 10 38 9 33-1 34-2 12-9m-1470-60c0-19-54-32-100-24-43 7-44 8-15 14 17 4 45 5 63 2 20-3 32 0 32 7 0 6 5 11 10 11 6 0 10-5 10-10m3975-40c4-6 13-7 24-1 9 5 133 10 275 10 258 1 258 1 251-21-5-13-9-97-10-188-2-165-2-165-40-172-64-14-465-5-435 9 25 11 25 11 0 21-22 9-22 11-5 12 63 5 157 4 177-2 15-4 4-6-32-7-30-1-62-6-70-11-10-7 27-10 115-11 162-2 193 0 226 13 24 11 25 13 15 55-8 35-6 54 8 93 10 27 14 55 10 61-4 7-8 24-9 38s-3 32-3 40c-2 10-16 12-64 7-81-8-78-8-243-3-130 4-173 13-224 44-6 3 10 23 19 23 5 0 12-5 15-10m-3452-7c4-3 2-11-3-18-6-7-12-322-16-827-7-835-7-849 29-820 7 6 154 10 372 11 198 1 414 6 480 11s253 10 415 10 372 5 465 10c203 11 952 16 962 7 18-18-36-23-370-29-785-16-1846-41-2210-53-148-4-148-4-152-1877-4-1933 10.36-3359.247-6.64-3353.247 1.42-53.935-11.99 221.047-13.85 473.373-9.58 1303.224-6.24 5351.684 5.49 5856.874 12 476 13 567 10 580-6 24 16 36 33 18m162-33c33-6 87-15 120-21 33-5 85-14 115-19 51-9 113-20 235-40 28-4 79-13 115-20 74-13 156-26 250-39 36-6 94-15 130-21s92-15 125-21c33-5 85-14 115-19 142-24 293-48 380-60 36-6 94-15 130-20 36-6 94-16 130-21 36-6 90-14 120-19 107-18 185-30 220-35 19-3 58-10 85-15 28-5 103-17 168-26 100-15 117-21 117-36 0-11-7-18-20-18-18 0-20-7-20-60 0-64 5-74 20-37 5 13 9-154 9-439 1-462 1-462-21-468-13-3-403-6-868-7s-1059-4-1320-8c-261-3-477-4-480-1-5 4 2 880 10 1295 2 77-1 153-5 169-8 29-8 29 36 23 24-3 71-11 104-17m-1868-49c8-29 9-49 3-62-14-26-12-82 4-104 10-14 12-45 8-130-3-80-1-114 7-119 18-11-6-36-34-36-43 0-52 26-57 157-4 96-2 125 8 134 18 15 18 59-1 86-10 15-13 35-8 72 6 49 8 52 32 49 20-2 28-11 38-47m5289 8c8-14-14-29-43-29-25 0-29 10-11 28 15 15 45 16 54 1m-1536-125c0-29 4-33 43-43 44-12 85-37 75-46-8-8-148 26-148 35 0 4-43 6-95 4s-95 0-95 5 5 11 11 13-9 4-33 5c-84 2-160 16-165 29-3 8-19 14-37 14-17 0-38 5-46 11-29 19 232-7 370-38 60-14 88-6 82 22-2 14-1 33 3 42 6 17 7 17 21-1 8-11 14-34 14-52m-3300-8c0-7-7-19-15-26-16-13-20-3-9 24 8 20 24 21 24 2m4820-51c0-29-4-35-22-35-17 0-19 3-10 12 7 7 12 22 12 35s5 23 10 23c6 0 10-16 10-35m6238 13c-6-18-31-21-96-13-72 9-50 25 36 25 47 0 63-3 60-12m-1928-77c28-19-34-30-124-24-74 5-86 4-92-11-7-17-54-23-54-5 0 5-5 7-12 3s-111-9-233-10c-121-2-277-4-347-7-117-3-128-2-128 14 0 10 5 21 11 25 7 4 136 10 288 13 519 11 676 12 691 2m-1032-39c2-7-6-12-17-12-21 0-27 11-14 24 9 9 26 2 31-12m-3348-52c18-11 9-12-117-10-48 1-84-3-88-10-8-13-25-3-25 16 0 17 204 21 230 4m210 0c0-5-13-10-30-10-16 0-30 5-30 10 0 6 14 10 30 10 17 0 30-4 30-10m5736-529c0-286-4-522-7-526-11-10-17 164-18 495-1 173-3 360-6 415-5 108-1 135 19 135 11 0 13-100 12-519m-6556-118c0-325-4-493-10-483-13 21-13 980 0 980 7 0 10-172 10-497m90 458c0-11 9-21 22-24 21-6 21-7 4-26-21-23-38-19-29 6 4 9-1 19-10 25-21 11-22 38-2 38 8 0 15-8 15-19m-3332-55c3-53 1-58-13-46-23 19-637-1-662-22-13-10-66 40-57 53 2 4 154 10 339 14 196 4 332 11 329 16s-59 7-127 4c-124-5-188 2-194 21-2 7 31 11 94 13 54 1 99 4 101 6s45 3 96 2c91-2 91-2 94-61m-798 20c7-20 9-165 10-784 0-42 0-42 377-40 274 2 377 6 380 15 6 17-64 36-113 29-24-3-46-1-49 4s31 10 82 12c83 3 88 4 91 26 2 13-1 29-7 36-5 6-8 34-5 61 9 85 5 230-6 233-5 2-10 16-9 30 0 15 3 21 6 15 14-36 23-3 24 85 0 53 4 106 9 117s8-378 7-910c-2-924-2-930-22-926-46 8-541 28-678 27-154-1-161 1-145 43 5 13 8 262 8 553-1 292 2 533 5 536s5 189 5 412-1 415 0 428c0 29 18 28 30-2m141-158c15-51 14-141-1-146s-12-73 5-106 20-97 5-112c-8-8-6-15 5-24 8-7 15-19 15-26 0-8 5-14 10-14 15 0 12-29-5-46-8-9-15-31-15-49 0-36-10-48-32-40-31 12-37 53-31 238 3 100 5 219 3 264-1 45 1 87 5 93 12 20 24 9 36-32m6279-448c0-5-11-10-25-10s-25 5-25 10c0 6 11 10 25 10s25-4 25-10M742 5618c18 18 54 16 39-2-13-16-80-26-87-14-10 16 7 29 22 17 11-9 18-9 26-1m466-15c-26-2-71-2-100 0s-8 3 47 3 79-1 53-3m5922-28c11-13 8-15-19-15-30 0-39 9-24 23 11 11 30 8 43-8M205 5460c-3-5-15-10-26-10-10 0-19 5-19 10 0 6 12 10 26 10s23-4 19-10M31 5357c-8-29-9-27-9 23-1 44 1 50 9 32 5-15 6-36 0-55m4974-37c-3-5-49-9-103-8-53 0-101-1-107-2-26-6-95 1-95 10 0 6 59 10 156 10 96 0 153-4 149-10m225 0c0-5-13-10-30-10-16 0-30 5-30 10 0 6 14 10 30 10 17 0 30-4 30-10m316-17c3-15-1-23-11-23-8 0-15 7-15 15 0 10-11 15-37 16-38 2-38 2-3 9 51 11 63 8 66-17m5574-13c13-25 42-27 38-2-2 13 5 18 27 20 45 4 62-11 39-34-15-15-34-19-88-19-68 0-69 1-72 28-2 23 1 27 21 27 14 0 29-9 35-20m-787-5c1-5-6-11-15-13-11-2-18 3-18 13 0 17 30 18 33 0m-4380-37c6-8 7-24 2-34-8-18-8-18-13 1-2 11-8 24-13 30-5 5-9 13-9 18 0 13 22 3 33-15m3361-11c-7-19-20-22-29-7s16 43 27 32c5-5 6-16 2-25m1120 20c-12-7-19-18-17-24 3-7 0-13-6-13s-11 4-11 9-3 16-6 25c-5 13 1 16 27 16 32-1 33-2 13-13m460-9c8-13 7-21-2-30-10-10-14-8-18 10-4 12-10 22-15 22s-9 5-9 11c0 16 31 7 44-13m-9033-26c0-27 0-27 10-2 14 35 30 8 27-50-2-57-11-74-18-35-3 17-10 29-15 28-14-4-24-241-12-278 6-16 11-97 11-179 1-144 2-149 24-157 27-10 28-26 2-34-11-3-20-13-20-21s-7-17-15-20c-9-4-15-19-15-38-1-21-3-26-9-16-10 20-1 220 10 220 5 0 9 5 9 11 0 5-4 7-10 4-5-3-10 3-10 14s5 23 10 26c15 9 12 55-6 72-8 9-13 22-10 29 3 8 6 112 7 232 1 119 4 220 6 225 8 14 23-4 24-31m7724 7c5-5 0-9-15-9-26 0-101-54-61-3 26 32 50 36 76 12m77-14c-9-19-19-35-23-35s-7 16-6 35c1 29 5 35 23 35 21 0 21-1 6-35m333 25c3-5 19-9 35-7 16 1 28-2 27-7-3-13-86-16-93-5-6 11 4 29 16 29 5 0 12-4 15-10m-6455-30c0-10-4-21-9-25-12-7-25 31-16 45 9 15 25 2 25-20m1920 10c0-5-13-15-30-24-27-13-30-13-30 2 0 10 10 22 23 28 23 11 37 9 37-6m3934 12c7-12-5-52-15-52-5 0-9 14-9 30 0 28 13 40 24 22m1780 2c22-8 10-24-19-24-32 0-56 10-49 21 6 10 45 12 68 3m-5154-51c0-13-4-23-10-23-5 0-10 17-10 38 0 27 3 33 10 22 5-8 10-25 10-37m5002 27c8-12-72-6-72-1 0 27 55 29 72 1M52 5169c-8-27-11-30-17-16-10 24 3 73 16 60 7-7 7-22 1-44m9714 16c6-19-13-7-23 0-9 7-13 17-9 23 12 20 21 14 32-23m613 26c16-10 6-31-14-31-17 0-28 17-20 30 8 12 16 12 34 1m-7891-18c-4-22-22-20-26 1-2 10 3 16 13 16s15-7 13-17m6652-19c0-8-4-14-9-14s-13-9-16-20c-8-24-35-27-35-3 0 20 40 64 51 57 5-3 9-12 9-20m990 6c0-13-46-4-22 9 23 14 22 14 22-9m-5385-10c4-6 1-18-6-26-11-14-13-14-21 0-15 26 12 51 27 26m3990-49c-10-25-24 2-18 33 6 30 6 30 15 6 5-13 6-30 3-39m1815 10c0-27-15-34-40-19-18 11-23 11-33-2-13-16-137-23-137-7 0 4 10 8 23 8 12 1 38 3 57 4s53 9 75 18c52 21 55 21 55-2m-1230 1c0-4-9-13-20-20-12-7-39-56-39-30-1 18 5 29 19 33 11 3 20 11 20 16s5 9 10 9c6 0 10-3 10-8m-6115-51c-10-16-25-3-25 22 0 20 1 20 16 5 9-9 13-21 9-27m5591 3c-5-13-10-14-18-6-6 6-8 18-4 28 5 13 10 14 18 6 6-6 8-18 4-28m-6077 5c-11-11-23-18-26-15-9 8 17 36 33 36 10 0 7-7-7-21m6112-26c-9-17-10-17-16 0-4 9-4 25 0 35 6 16 7 16 16 0 7-12 7-24 0-35m-8421 5c0-7-5-20-10-28-8-13-11-13-26 2-9 9-13 21-10 27 10 15 46 14 46-1M49 4956c-14-16-22 1-14 31 8 28 8 28 15 3 4-14 3-29-1-34m3081-6c0-11-6-20-13-20-8 0-22 9-32 20-18 20-17 20 13 20 25 0 32-4 32-20m5620 3c0-10 7-36 16-60 10-25 13-50 9-60-8-19-9-18-33 95-5 23-5 42-1 42 5 0 9-8 9-17m-4950-53c0-11-4-20-9-20-14 0-23 18-16 30 10 17 25 11 25-10m-1897-63c5-32 3-38-10-35-9 2-16 6-15 11 1 4 2 26 2 50 1 49 14 34 23-26m2527-22c11-13 8-15-14-15-25 0-33 10-19 23 10 11 19 8 33-8m-510-37c0-7 3-23 6-35 5-17 2-23-9-23-10 0-16 12-19 35-3 24 0 35 9 35 7 0 13-6 13-12m84-34c20-8 11-24-14-24-13 0-17 5-14 15 7 17 7 17 28 9m-1752-56c-13-13-24 5-16 27 7 16 8 16 17 0 6-11 6-20-1-27m6538 2c0-13-7-20-19-20-27 0-35 17-14 29 26 15 33 13 33-9m-4890-15c0-9-9-15-25-15-18 0-23 4-19 15 4 8 15 15 25 15s19-7 19-15m-624-40c-33-17-46-19-46-6 0 10 22 18 55 20 15 1 13-3-9-14m5514-66c0-17-4-28-10-24-5 3-10 17-10 31 0 13 5 24 10 24 6 0 10-14 10-31m-6619-84c-1-15-24-12-29 3-3 9 2 13 12 10 10-1 17-7 17-13m-1891-15c0-5-12-10-26-10s-23 4-19 10c3 6 15 10 26 10 10 0 19-4 19-10m4100-15c35-13 35-13 4-14-17-1-37 6-44 14-15 18-7 18 40 0m-4040-21c0-14 9-15 73-8 115 13 172 11 172-6 0-21-68-32-365-57-30-3-60-9-67-14-7-7-13-6-17 0s-13 8-21 4c-10-3-15 1-15 15 0 13 6 21 18 20 9 0 40 5 67 12 28 7 69 12 93 12 35-1 42 2 42 18 0 11 5 20 10 20 6 0 10-7 10-16m2816-19c3-8 3-19 0-24-10-16-36-1-36 20 0 22 28 26 36 4m-516-5c0-5-19-10-42-9-33 0-38 2-23 9 28 12 65 12 65 0m1220-19c0-11-4-23-10-26-6-4-10 5-10 19s5 26 10 26c6 0 10-9 10-19m-3200-35c0-8 9-18 20-21 28-9 15-25-21-25-31 0-32 2-23 38 7 24 24 30 24 8m1410 4c0-12-28-25-36-17-9 9 6 27 22 27 8 0 14-5 14-10m-920-9c0-6-21-13-47-16-27-3-90-13-141-21-109-18-131-21-237-34-44-6-85-12-92-13-11-2-13 1-13 23 0 6 24 10 54 10s57 4 60 8c8 13 262 48 364 51 28 0 52-3 52-8m1930-31c0-17-32-19-53-4-22 16-22 16 0 10 12-4 24-2 28 4 7 11 25 4 25-10m-1453-267c-1-54-3-12-3 92 0 105 2 149 3 98 2-51 2-136 0-190m473 236c0-10-7-19-15-19-16 0-19 9-9 34 8 20 24 11 24-15m6660 7c0-27-16-44-23-24-5 18 3 48 14 48 5 0 9-11 9-24m-6906-102c-2-132-18-174-27-68-3 38-1 79 4 92s9 39 9 58 3 34 8 34c4 0 6-52 6-116m4080 61c-3-14-10-25-15-25-10 0 23 57 15 25m-1352-291c-1-173-4-320-8-325-19-31-23 33-22 314 1 284 6 352 26 332 3-3 5-147 4-321M503 4255c1-6-36-13-83-17s-94-9-104-10c-10-2-21 2-23 8-2 7 31 14 94 21 112 11 114 11 116-2m4530-21c-16-148-20-231-14-237 13-13 48 38 67 96 19 59 31 77 50 77 20 0 17-34-7-75-12-20-18-39-14-43 9-9 33 23 52 71 10 24 22 37 33 37 28 0 32-15 10-35-16-14-17-21-8-32 8-10 8-19-1-37-10-18-12-87-9-280 6-317 25-291-212-291-165 0-165 0-170 90-3 50-3 162 0 250 5 154 4 161-17 192-28 39-28 41-2 45 21 3 21 3 0 30-25 31-27 48-6 48 9 0 29-21 45-46 28-45 100-92 120-79 4 3 11 56 15 119 7 107 9 115 29 119 32 6 41 2 39-19m-4768-4c7-11-42-26-53-16-7 8 17 26 35 26 6 0 15-4 18-10m4100-10c4-6-9-10-32-10-28 0-34 3-23 10 20 13 47 13 55 0m-123-22c-8-8-17-8-34 0-22 10-21 11 12 11 26 1 31-2 22-11m-87-18c-3-5-17-10-31-10s-22 4-19 10 17 10 31 10 22-4 19-10m5602-85c-4 22 27 14 14-20-6-15-9-12-14 20m-911 57c13 20 29-82 25-82-10 0-31 71-25 82m558-49c3 6 21-13 10-13-9 0-13 5-10 13m824-3c-7 0 15 4 22-5 8-9 8-15 0-20-5-3-10 1-10 9 0 9-6 16-12 16m-6395 20c-4-4-24-5-43-2-35 6-35 6 0 12 38 7 57 2 43-10m-71-30c12-11 17-20 10-20-6 0-14 5-18 11-4 7-24 9-56 5-56-8-91 5-43 15 56 12 86 9 107-11m6771-6c10-13 17-32 14-42-3-13-6-12-15 9-6 15-18 29-26 32-9 4-16 11-16 17 0 18 25 10 43-16m-933-16c0-5-11-8-25-8-29 0-33 15-8 29 17 9 32-1 33-21m739 18c15-18 2-27-27-19-24 6-29 19-9 26 20 9 24 8 36-7m-6724-15c20-8 20-8-1-15-11-3-36 0-55 8-34 15-34 15 1 15 19 0 44-4 55-8m6608-6c-2-9-114-25-296-41-43-4-80-11-83-15-7-12-81-11-89 1-8 13 11 20 66 23 24 2 53 8 65 15 15 8 24 8 32 0s15-8 24-1c7 5 40 11 73 12s61 6 63 11c5 12 148 7 145-5m-6723-5c0-5-11-10-25-10s-25 5-25 10c0 6 11 10 25 10s25-4 25-10m-1630-42c0-23-3-29-11-21-6 6-8 20-4 32 9 30 15 26 15-11m1490 12c-8-6-28-10-45-10-16 0-40-3-52-6-14-4-23-2-23 5 0 6 17 11 38 12 20 1 48 4 62 8 30 9 40 4 20-9m345 10c4-6-6-10-24-10-16 0-33 5-36 10-4 6 6 10 24 10 16 0 33-4 36-10m5958-35c31-6 42-4 49 9 11 20 28 21 28 1 0-17-78-55-114-55-12 0-26-4-31-8-6-5-36-14-67-21-32-7-60-17-63-22-8-12-25-11-25 2 0 22 45 48 83 49 23 0 40 5 43 14 4 10 15 13 40 9 23-4 34-2 34 6s-8 10-20 6c-17-6-20-2-19 27 0 30 1 31 11 11 7-15 23-24 51-28m-9040 28c10-9-25-32-48-32-19 0-19 1 4 19 25 21 34 24 44 13m1211-78c5-36 4-46-3-35-10 13-16 99-7 89 2-2 6-26 10-54m7573 30c3-9 3-19-1-22-8-9-37 18-30 28 8 14 24 11 31-6m-6317-5c0-5-16-10-36-10-21 0-33 4-29 10 3 6 19 10 36 10 16 0 29-4 29-10m1313-4c8-21-16-39-31-24-7 7-12 18-12 25 0 18 36 17 43-1m4379-22c-19-14-34 0-25 22 4 10 9 10 23 2 17-11 17-13 2-24m-6902-10c0-15-6-24-16-24-11 0-14 5-10 16 3 9 6 22 6 30 0 9 5 12 10 9 6-3 10-17 10-31m88 14c-3-7-15-14-29-16-23-2-23-2-5 13 24 18 39 20 34 3m8497 2c3-5 18-10 33-10 20 0 23-3 13-9-9-6-24-5-40 2-36 15-48 27-29 27 9 0 20-4 23-10m-7315-26c0-12-4-12-21-4-15 8-24 8-34 0-14-12-31 2-21 18 8 14 76 1 76-14m1169-26c1-12-27-9-34 2-4 6-1 18 6 26 12 14 14 14 20-3 4-10 8-21 8-25m-1565 12c-12-4-24-15-27-24-8-19-37-21-37-3 0 13 42 35 70 35 8 1 6-3-6-8m856-42c0-28-3-39-10-32-9 9-3 74 6 74 2 0 4-19 4-42m865 17c0-25-24-30-50-10-17 13-18 16-5 25 24 16 55 8 55-15m-1383-32c-5-27-5-27-14-4-8 24-2 45 11 36 5-2 6-17 3-32m6073 7c0-8-10-16-22-18-18-3-23 2-23 18s5 21 23 18c12-2 22-10 22-18m1868 4c-3-8-12-13-20-10s-19 6-24 6-9 5-9 10c0 6 13 10 30 10 22 0 28-4 23-16m-8193-19c-8-9-6-15 7-20 17-6 17-7-1-21-26-19-29-18-43 11-9 20-8 25 3 25 8 0 14 7 14 15 0 9 6 12 15 9 11-5 13-10 5-19m-350 5c0-12-41-30-53-23-4 3-3 11 4 19 13 16 49 19 49 4m1900-18c24-19 21-42-5-42-16 0-46 40-39 52 8 12 20 10 44-10m-3635-12c4-6-10-10-35-10s-39 4-35 10c3 6 19 10 35 10s32-4 35-10m1659 1c7-10-22-37-30-28-9 8 3 37 15 37 5 0 12-4 15-9m2066-3c0-7-5-20-10-28-9-13-12-12-25 4-8 10-12 23-9 27 8 14 44 10 44-3m-2853-200c-1-40-3-10-3 67s1 110 3 73 2-100 0-140m633 193c0-10-36-21-65-20-16 0-13 4 10 14 35 16 55 19 55 6m953-28c-6-39-10-50-17-42-6 8 6 79 14 79 5 0 6-17 3-37m5597 27c0-5-11-10-24-10-14 0-28 5-31 10-4 6 7 10 24 10s31-4 31-10m-7550-30c11-7 2-9-30-9-37 1-41 2-20 9 34 11 33 11 50 0m2890-10c0-11-4-20-9-20-14 0-23 18-16 30 10 17 25 11 25-10m1705 10c4-6 1-17-5-25-14-17-66-20-75-5-3 6 3 10 13 10 11 0 25 7 32 15 15 18 26 19 35 5m-1426-14c7-8 11-30 9-48-4-42 37-84 54-55 14 25 24 21 22-10 0-15-7-30-15-34-42-22-84-39-98-39-9 0-24-7-34-15-11-7-38-16-60-20-23-3-71-15-107-26-67-20-106-31-250-73-47-13-116-34-154-45-38-12-76-21-83-21-8 0-35-6-61-14s-101-28-167-46-124-36-130-40c-5-4-30-10-55-13-38-4-87-14-207-42-41-10-24 11 28 34 35 15 61 20 80 16 22-5 29-3 29 8 0 16 41 27 106 27 24 0 44 4 44 8s21 13 48 20c26 8 55 18 64 23 10 5 28 9 41 9s27 3 31 7c8 8 90 28 239 60 87 19 100 33 30 33-33 1-43 3-33 10 9 5 34 5 62-1 32-7 53-7 67 0 11 6 31 11 45 11s28 5 31 10c3 6 21 10 39 10 17 0 37 5 43 11s26 14 44 19c241 59 287 82 257 130-9 15-10 22-1 31 6 6 9 26 6 45-6 37 13 47 36 20m971-12c0-16-16-19-25-4-8 13 4 32 16 25 5-4 9-13 9-21m5560-29c0-8-9-19-20-25-28-15-41 17-15 36 20 15 35 10 35-11m-9110-6c0-24-23-21-28 4-2 10 3 17 12 17 10 0 16-9 16-21m6223 5c4-4-10-23-31-42-28-27-38-32-40-20-2 9-17 19-35 23-29 7-30 8-8 12 13 3 28 0 33-5 13-13 58 6 58 25 0 14 12 17 23 7m2467-14c0-5-4-10-10-10-5 0-10-6-10-14s-4-18-10-21c-6-4-10 7-10 24 0 24 4 31 20 31 11 0 20-4 20-10m-2160-36c0-17-5-24-20-24-23 0-29 45-7 53 19 7 27-2 27-29m201 13c-11-11-41-3-41 11 0 5 12 7 26 4q25.5-4.5 15-15m-6710-11c-13-14-18-26-12-30 5-4 12-2 16 4 3 5 11 10 17 10s2-10-10-23c-25-26-30-95-10-115 9-9 8-12-4-12-9 0-20-10-23-21-7-22 2-262 11-311 3-16 1-28-4-28-20 0-25 61-23 295 3 249 4 255 45 255 18 0 18-1-3-24m4009-12c-7-8-11-17-8-20 14-13 184-13 251 1 84 17 127 19 127 5 0-5-9-10-19-10-11 0-23-5-26-11-7-11 55-7 86 6 10 3 20 2 24-4 12-20 53-12 61 11 6 21 6 21 23 0 13-17 27-21 76-22 194-4 232 0 246 28 14 24 39 30 39 8 0-36-12-46-56-46-24 0-44-5-44-10 0-6 37-9 98-8 53 1 108-1 120-6 23-8 23-8 4-21-24-17-95-18-422-5-140 5-374 14-520 20-496 19-700 29-710 35-37 23 57 59 118 45 29-7 49-7 62 0 14 8 20 8 20 0 0-6 14-8 38-4 21 3 56 1 77-5 22-6 43-7 48-2s21 4 36-2c32-12 120 9 128 31 6 15 33 16 33 1 0-7-8-18-17-25-27-19-8-29 35-18 22 5 37 15 37 24 0 17 38 41 43 28 2-5-2-15-8-24m195 17c8-14-10-22-30-15-13 5-14 8-3 15 17 11 26 11 33 0m-4935-21c74-1 126-4 115-8s-38-7-60-6-86 2-143 3c-72 1-101 4-96 12 3 6 16 8 28 5 11-3 82-6 156-6m3628-7c-6-29-108-26-108 3 0 10 15 14 56 14 47 0 55-3 52-17m2268 3c24-25 15-35-16-19-17 8-28 19-25 24 9 13 24 11 41-5m1599-54c-2-3-11-2-19 1-12 5-13 10-3 31 12 25 12 25 19-1 4-15 5-29 3-31m401 35c10-23 10-24-18-10-31 16 12 22 18 10m-208-20c2-10-3-17-12-17-10 0-16 9-16 21 0 24 23 21 28-4m-1938 3c0-5-12-10-26-10s-23 4-19 10c3 6 15 10 26 10 10 0 19-4 19-10m1850-15c11-13 8-15-13-15-26 0-42 12-30 24 11 11 30 7 43-9m-616-14c12-10 14-16 6-21-7-5-1-10 15-14 21-5 32-1 50 19 14 15 35 25 51 25 23 0 25-3 20-26-7-25-6-26 31-22 21 3 51 1 66-3 37-10 87 0 87 17 0 18 21 18 46-1 20-15 90-11 108 6 15 14 23 11 29-12 5-18 13-20 64-18 32 1 66-2 76-6s17-3 17 4c0 8 12 10 36 5 30-6 36-4 41 15 6 24 33 29 33 6 0-9 9-15 25-15 14 0 28 7 31 15 10 25 31 17 43-15 7-22 18-32 41-36 16-4 30-10 30-14 0-14-52-16-240-9-102 4-275 10-385 13-373 11-475 21-475 42 0 8 7 17 16 21 8 3 13 11 10 18-7 19-3 20 57 20 31 0 62-6 71-14m-5336-14c2-10-3-17-12-17-18 0-29 16-21 31 9 14 29 6 33-14m742-19c0-10-11-10-29 1-9 6-11 16-7 27 7 18 8 18 22 0 8-11 14-23 14-28m4890 27c0-8-7-15-15-15s-15 7-15 15 7 15 15 15 15-7 15-15m-3745-21c79-5 95-12 95-45s4-33-125-19c-49 5-128 12-174 15-47 3-87 7-89 10-10 10 12 25 37 25 16 0 44 7 62 15 24 11 50 13 89 9 30-4 78-8 105-10m-3555-38c81-1 95-4 98-18 3-17-24-28-109-43-40-7-259 12-271 24-4 4 0 17 9 30 15 22 19 23 97 16 45-5 124-8 176-9m8423-7c-6-6-19-9-29-6-17 3-16 5 6 14 28 12 39 8 23-8m1150 5c8-8-3-34-14-34-5 0-9 9-9 20 0 19 11 26 23 14m-198-14c-3-5-19-8-36-6-47 5-47 16 0 16 25 0 40-4 36-10m-8868-242c-1-46-3-9-3 82s2 128 3 83c2-46 2-120 0-165m1603 207c0-7-7-18-15-25-13-11-15-7-15 25s2 36 15 25c8-7 15-18 15-25m-1002-29c-15-18-27 7-16 34 11 25 11 25 18 0 4-14 3-29-2-34m7122-20c0-18-11-58-24-87-13-30-32-83-41-119-10-36-21-69-25-75-4-5-15-41-25-80-10-38-21-74-25-80-9-13-41-112-39-122 4-22-3-33-19-33-14 0-18-6-15-27 4-35-31-150-42-134-8 13 14 140 26 155 4 5 5 21 2 36-3 19 0 29 11 33 9 4 16 18 16 33 0 14 9 37 20 51 24 31 27 83 5 83-18 0-18 2-3 34 10 24 12 24 24 8s13-16 14 3c0 18 28 101 50 150 5 11 14 38 21 60 22 72 53 145 61 145 4 0 8-15 8-34m-3340-21c63-2 250-9 415-15s309-13 320-16c23-6 471-22 865-30 151-3 276-7 277-8 2-2 6-23 9-49 6-42 5-47-17-56-13-5-53-37-89-71-74-70-13-67-770-35-184 8-396 17-470 20s-241 10-370 15c-129 6-343 15-474 20-200 8-242 13-258 26-35 32-43 26 232 188 42 25 51 27 130 21 47-3 137-7 200-10m2144-10c3-8 15-15 26-15 46 0 5-44-44-46-17-1-39 2-49 8-12 6-23 6-32-2-10-8-19-8-34-1-16 9-22 8-31-6-9-15-10-14-4 6 4 16 3 21-5 16-14-8-41 12-41 31 0 16 52 9 58-8 2-4 8-8 14-8s8 6 5 14c-5 12 4 14 48 11 30-3 57 0 60 5 9 15 22 12 29-5m255-1c2-2-14-4-37-4-22 0-44 5-47 10-6 10 73 3 84-6m1499-32c2-7-5-12-17-12-14 0-19 5-14 15 6 17 25 15 31-3m-7001-47c-7-17-34-31-43-22-3 3 2 17 12 32 18 28 42 20 31-10m6706 3c4-12 4-24 1-27-6-7-24 20-24 37 0 21 17 13 23-10m-6818-28c-3-6-10-10-16-10-10 0-12 33-2 44 9 9 26-22 18-34m2055 16c0-16-18-31-27-22-8 8 5 36 17 36 5 0 10-6 10-14m5912-21c11-25 12-35 3-35-11 0-35 41-35 60 0 21 17 8 32-25m-2188-4c56-35 71-62 53-98-16-30-57-71-97-96-66-42-280 3-280 16 0 7-9 27-20 45-27 44-25 63 8 94 58 54 104 68 213 65 68-2 92-7 123-26m871-6c0-10-6-20-12-22-8-3-13 5-13 22s5 25 13 23c6-3 12-13 12-23m-615-10c-7-8-16-15-20-15s-10 7-14 15c-4 11 2 15 21 15 21 0 24-2 13-15m900 0c0-8-7-15-15-15s-15 7-15 15 7 15 15 15 15-7 15-15m1119-2c26-25 35-69 16-77-35-13-60 27-48 75 6 23 9 23 32 2m-5994-73c-19-30-52-1-35 31 12 21 12 21 26 0 9-12 12-26 9-31m6200 40c4-6-7-10-24-10s-31 5-31 10c0 6 11 10 24 10 14 0 28-4 31-10m-1465-26c0-14-4-23-10-19-5 3-10 15-10 26 0 10 5 19 10 19 6 0 10-12 10-26m-5010-2c35-5 35-5 5-11-35-7-107-2-101 8 6 8 54 10 96 3m173-9c-13-2-35-2-50 0-16 2-5 4 22 4 28 0 40-2 28-4m6267-23c0-13-34-30-59-30-20 0-28 19-14 33 10 11 73 8 73-3m-8740-46c0-8-9-14-20-14-22 0-28 26-7 33 16 6 27-1 27-19m646-33c-10-16-46-20-46-5 0 8 10 14 26 14 14 0 23-4 20-9m8038-4c34 0 66 2 72 5 16 10 79-8 76-21-1-7-107 0-136-2-78-3-96-1-96 17 0 8 5 12 11 9 5-4 38-7 73-8m-9337-89c-2-18-4-6-4 27s2 48 4 33 2-42 0-60m1153 40c-12-11-19-26-16-34s-1-14-9-14c-17 0-20-26-5-35 12-7 12-61 1-90-8-19-8-19-20 3-9 17-17 21-36 16-21-5-25-3-25 16 0 13 8 24 20 27 21 6 27 28 10 38s-11 25 9 25c14 0 21 8 23 27 2 17 12 32 27 40 34 16 47 5 21-19m6054 8c-7-17-34-23-34-6 0 9 32 31 38 26 1-2 0-11-4-20m-6973-26c5 0 9-9 9-20s-4-20-10-20c-5 0-10 6-10 13 0 6-2 21-4 32s-1 14 1 8c3-7 9-13 14-13m183 22c2-4-4-13-15-20-15-10-19-10-19 1 0 24 23 36 34 19m841-62c3-6 0-13-9-16-8-3-12-12-9-20 6-17-1-18-27-2-18 12-18 13-2 30 19 19 38 23 47 8m-259-48c-21-22-29-11-16 24 10 27 12 27 22 10 8-14 6-22-6-34m-64 19c16-19 30-113 15-104-5 3-14-3-21-13-12-16-14-15-20 12-4 16-9 36-12 45-3 12 1 16 13 15 9 0 19 7 21 17 4 21-21 23-38 2-7-8-16-12-21-9-17 10-9 35 14 44 31 12 31 12 49-9m7198 7c0-23-16-39-33-32-17 6-22 25-10 37 11 12 43 8 43-5m-7340-32c0-30 3-33 22-28 21 5 21 5 0-16-12-12-28-19-35-16-14 5-22 68-11 85 12 20 24 7 24-25m-56-24c-7-25-44-31-44-7 0 9 9 15 21 15 16 0 20 4 14 18-4 11-3 14 4 7 6-6 8-20 5-33m456 12c0-11 8-14 28-12 17 2 27-2 26-9s-2-22-2-33c-3-27-22-26-22 2 0 21 0 21-26-2-21-21-27-22-34-10-7 11-4 16 10 18 23 4 27 27 5 36-8 3-12 12-9 21 7 18 24 10 24-11m176-8c6-25-30-75-41-56-3 5-1 11 5 15 5 3 10 19 10 36 0 35 17 39 26 5m-896-66c0-10-9-24-20-30-22-12-27-45-9-56 6-3-36 10-51-29-11-28-30-34-30-9 0 28 54 104 73 104 14 0 17 5 12 20-5 14-2 20 9 20 9 0 16-8 16-20m198-26c19 12-28-61-28-69 0-20-46-20-54 1-6 16 6 47 17 45 21-3 27 0 27 14 0 7-7 18-16 23-10 6-14 14-9 22 5 9 14 4 30-16 12-16 27-24 33-20m2110 18c2-14-2-22-12-22-19 0-28 14-20 35 9 21 28 14 32-13m4939 13c-4-8-2-17 4-21 15-9-10-34-35-34-12 0-27 5-34 12-9 9-16 8-30-5-25-23-34-21-30 6 2 17 10 22 33 23 49 1 55 3 55 19 0 9 9 15 21 15 14 0 19-5 16-15m-6897-47c0-19-62 14-43 34 16 18 18 18 30 2 7-10 13-26 13-36m282 28c5-7 12-4 22 9 14 19 15 19 33 2 11-9 26-17 34-18 10 0 10-2 2-6-7-2-66-3-78-3-13 0-25 5-27 12-5 14-38 4-38-12 0-5 7-10 15-10 16 0-60 30-39 30 8 0 14 5 14 10 0 13 52 1 62-14m6792-11c-4-15-1-32 6-41 9-10 10-18 3-25s-17 2-32 27c-25 41-22 64 9 64 17 0 19-4 14-25m-94-11c0-17-36-19-46-3-8 14 14 29 33 22 7-3 13-11 13-19m1375-25c473-32 535-38 535-50 0-8-129-16-185-11-11 1-83 4-160 6-77 3-207 10-290 16-82 6-234 12-336 13-146 1-186 4-182 14 3 7-2 13-11 13s-16 5-16 11c0 13 375 6 645-12m-4465 1c11-7 4-10-25-9-31 0-36 2-20 9 26 11 28 11 45 0m2724-44c-3-14-10-26-15-26-11 0-11 3 1 36 13 33 23 26 14-10m-6894 5c0-12-70-44-70-26 0 8 6 15 14 15s16 7 20 15c8 22 36 18 36-4m2336-33c-9-44-29 28-23 5 4-14 5-12 6 5 0 12 6 22 12 22 8 0 9-11 5-32m2406 1c-22-8-52-3-52 10 0 4 17 5 37 3 33-4 35-6 15-13m1414-17c16 17 10-30 0-26-16 6-16 8 0 26m750-79c-6-48-50-199-71-248-54-123-115-391-115-508 0-50-3-67-10-57-5 8-10 24-10 36 0 11-11 34-25 50-16 18-21 32-15 38s15 3 25-10c18-24 19-6 4 46-10 32-9 42 5 61 18 26 21 65 6 74-5 3-9 23-9 43 2 30 3 32 6 10 9-56 33-24 33 42 0 21 9 57 20 81 11 25 20 66 20 93 0 50 0 50 20 28 26-28 25-29 27 18 1 21 7 50 14 62 13 24 25 73 38 148 14 90 50 83 37-7m-646-48c0-17-11-20-25-6-6 5-19 11-30 14s-4 5 18 6c27 1 37-3 37-14m300-38c0-27-21-36-41-16-25 25-24 29 11 29 18 0 30-5 30-13m494-98c-8-14-34-11-34 4 0 8 3 17 7 20 9 9 34-13 27-24m-4754-51c0-25-3-29-10-18-13 20-13 50 0 50 6 0 10-15 10-32m3040-18c-12-23-40-27-40-6 0 14 14 24 38 25 10 1 10-4 2-19m1748 8c16-16 15-28-3-28-8 0-15 6-15 14s-10 17-22 19c-21 4-21 4 3 6 14 0 30-4 37-11m-2228-8c0-5-12-10-26-10s-23 4-19 10c3 6 15 10 26 10 10 0 19-4 19-10m-112-12c-5-15-58-24-58-9 0 9 20 17 48 20 8 0 12-5 10-11m718 2c18-7 30-7 40 1s19 7 36-5c12-9 32-16 45-16 12 0 24-4 27-9s23-11 43-15c92-13 119-19 128-26 28-21 64-20 85 2 20 22 20 22 53-10 26-27 29-34 17-42-8-5-11-12-7-16 3-4 14-1 23 7 15 12 19 11 32-9 8-12 20-22 26-22 23 0 61-49 48-62-9-9-16-8-30 5-10 9-48 30-85 47-66 30-111 44-252 80-38 9-81 22-95 27-14 6-54 13-90 17-78 8-140 24-140 35 0 23 49 29 96 11m277-21c-8-8-25-9-60-1-48 10-48 10 12 11 43 1 56-2 48-10m91-23c-7-17-44-23-44-6 0 10 41 31 48 25 1-1 0-10-4-19m1396-10c0-8-4-18-10-21-5-3-10-15-10-25 0-26-13-31-59-24-33 5-41 11-41 28 1 21 1 21 15 2s16-19 50-3c23 11 35 24 35 37 0 11 5 20 10 20 6 0 10-6 10-14m-2607-25c23-5 71-15 107-21s88-16 115-21c28-5 75-14 105-20 68-13 111-22 220-48 47-10 108-24 135-31 28-6 97-22 155-35 152-36 275-51 303-38 47 23 214 44 192 25-19-17-151-51-215-56-36-3-67-5-70-5-2-1 10-14 28-30 17-17 32-35 32-40 0-16 106-13 169 5 65 18 94 36 96 61 1 10 6 27 10 37 6 13 3 23-10 32-14 10-15 14-4 14 8 0 24 3 35 6 15 4 23 0 27-13 4-10 12-25 18-34 26-36-67-108-191-148-19-6-92-14-163-18-88-4-131-10-138-20-6-7-17-13-24-13s-16-8-19-17c-7-18 12-111 26-127 4-6 8-26 8-45 0-32 13-116 41-266 5-27 14-79 19-115s16-96 25-135c8-38 15-82 15-97s4-29 9-32c5-4 12-30 16-59 4-28 14-61 21-72 8-11 14-29 14-40 0-12 5-26 12-33s12-33 13-59c0-41 3-48 30-63 19-10 31-26 33-42 3-22 9-26 45-31 23-3 46-2 52 4 12 12 78 10 140-5 48-11 49-12 27-24-25-14-57-8-84 15-22 20-64 13-60-9 5-28-94-28-116 0-12 16-14 16-28-2-20-28-17-52 8-70 26-19 89-21 106-4 6 6 14 9 18 6 10-10-29-57-48-58-22 0-33-19-29-47 1-13-2-23-8-23s-11 6-11 13-9 18-20 25c-22 14-50 66-70 132-8 25-20 54-27 65s-13 29-13 40c0 12-5 26-12 33-9 9-8 16 5 30 20 22 21 29 3 63-7 14-19 57-26 95s-17 77-21 86c-5 9-15 56-23 105-8 48-22 124-30 168-9 44-16 96-16 116 0 19-4 39-9 45-5 5-11 32-14 59-14 145-43 272-74 320-19 29-17 65 5 65 9 0 30 11 47 24 29 23 29 23-2 40-18 9-42 16-55 16s-40 9-61 20c-20 11-53 20-73 20-37 0-130 26-152 43-7 5-13 8-15 6-27-47-27-47 4-53 19-4 33-14 39-31 5-14 14-25 18-25 5 0 15-21 22-47 7-27 24-63 37-81 18-24 23-40 18-61-3-15-1-41 5-57s11-57 11-91c0-35 4-63 10-63 5 0 9 14 9 31 0 19 4 28 11 24 6-4 9-21 8-39-4-56 1-96 11-96s21 51 25 113c7 143 36 169 50 45 3-29 11-72 17-95 7-27 7-47 1-55-5-8-7-41-3-78 5-46 7-54 8-25 3 67 23 25 29-61 3-44 11-90 18-104s16-52 20-85 11-64 15-70c4-5 10-30 13-55 19-150 19-160 8-174-9-11-9-16 0-21 8-6 7-10-4-16-20-12-50 0-43 17 3 7 8 40 12 74 6 58 6 62-12 56-26-8-44 33-44 98 0 66-9 96-25 90-9-4-16 10-22 48-10 53-10 53-17-7-4-33-12-72-18-87-6-16-8-36-5-47 2-10 1-25-4-32-6-10-9-1-11 26-1 22-2 54-3 70-1 17-9 59-18 95-33 127-82 399-93 508-4 34-10 65-15 68s-9 18-9 33c0 51-27 95-113 179-83 83-83 83-218 117-185 46-321 88-348 109-19 15-33 55-26 77 7 21 19 23 78 10m2377-50c0-14-18-23-30-16-6 4-8 11-5 16 8 12 35 12 35 0m-4064-9c-5-9-64-7-73 2-4 3 13 6 36 6s40-4 37-8m4166-86c-8-15-24 24-16 42 6 14 8 13 14-8 4-14 5-29 2-34m-62 15c0-12-29-35-36-28-11 10 5 37 21 37 8 0 15-4 15-9m-3810-36c0-16-27-32-37-22-3 4-3 13 0 22 8 20 37 20 37 0m3945-55c0-22-29-18-33 3-3 14 1 18 15 15 10-2 18-10 18-18m-2565-64c0-25-22-51-33-39-9 8-9 48 0 56 14 15 33 6 33-17m-5476-32c24-9 19-24-9-24-18 0-23 4-19 15 7 17 7 17 28 9m4536-34c0-5-9-10-19-10-11 0-23 5-26 10-4 6 5 10 19 10s26-4 26-10m3350-5c0-8-7-15-15-15s-15 7-15 15 7 15 15 15 15-7 15-15m-1710-46c0-16-4-29-10-29-5 0-10 16-10 36 0 21 4 33 10 29 6-3 10-19 10-36m-372 19c-3-7-13-13-23-13s-20 6-22 13c-3 7 5 12 22 12s25-5 23-12m-5920-18c25 0 32-4 32-19 0-28-23-32-61-12-19 10 11 31 29 31m5717-10c4-6 1-17-5-26-11-12-14-12-26 3-7 10-14 21-14 26 0 11 38 8 45-3m1406-6c18-13 73-31 122-40 20-3 40-10 43-15s15-9 28-9c26 0 46-17 46-41 0-12-6-16-20-12-12 3-20 0-20-6 0-7-5-9-10-6-8 5-7 11 1 21 9 11 7 14-10 14-11 0-21 5-21 10 0 6-22 10-50 10-27 0-50-4-50-10 0-5-13-10-30-10-16 0-30 5-30 10 0 6-7 10-16 10-11 0-14 6-9 20 6 18 2 20-37 21-24 1-52 3-63 5-82 14-115 16-115 5 0-6 14-11 31-11 20 0 29-4 26-12-4-13-13-13-88-2-22 4-39 1-43-5-4-7 1-11 13-11 11 0 23-4 26-10 4-6-8-10-28-10-19 0-40-6-46-14-6-7-22-11-36-9-15 3-39-4-61-17-33-21-37-22-46-7-5 10-18 17-30 17-17 0-19-4-14-25 5-18 2-25-9-25-8 0-15 6-15 14 0 7-3 28-6 45-6 29-5 31 24 31 17 0 33 4 36 9s18 11 33 14c49 9 148 39 158 47 6 4 19 10 30 13 34 10 272 2 286-9m-7007-9c4-11-1-15-19-15-24 0-32 10-18 23 11 12 31 8 37-8m7714-17c-3-7-11-13-18-13s-15 6-17 13c-3 7 4 12 17 12s20-5 18-12m62-78c0-16-4-30-10-30-5 0-10 14-10 30 0 17 5 30 10 30 6 0 10-13 10-30m-5149-639c-3 0-18 103-9 86 13-23 19-88 9-86m4539 634c0-12-7-14-27-9-62 15-69 23-20 23 36 1 47-3 47-14m993-6c7 0 0-4-15-9-15-4-38-5-50-2-23 6-23 6 2 13 14 4 31 5 38 3 8-2 19-4 25-5m-4939-37c2-4 0-14-5-22-8-13-10-13-19 0-5 8-10 18-10 23 0 10 28 9 34-1m-4104-12c0-6-8-13-17-16-10-3-17 23 5 25 6 1 12-4 12-9m8873-62c3-21 2-38-4-38-5 0-9 19-9 42 0 49 5 47 13-4m-2273 20c-1-52-72-107-139-108-14 0-35-7-45-15-11-8-30-15-42-15-13 0-25-4-28-9-3-4-27-11-53-15-50-7-103-23-140-44-12-7-29-12-37-12-9 0-16-4-16-10 0-5-7-10-15-10-26 0-16 17 19 34 18 8 39 22 46 31 6 8 28 17 47 21s40 15 46 25c15 24 36 24 53 2 13-17 15-17 28 0 7 9 22 17 33 17s28 9 38 20c13 14 25 18 48 13 25-5 29-3 24 9-4 13 0 14 28 8 41-9 59 1 50 29-3 11-3 25 0 31 9 14 55 12 55-2m170 2c0-15-35-30-69-30-21 0-31-5-31-15s-10-15-31-15c-37 0-35 23 2 28 13 2 32 12 42 23 19 20 87 27 87 9m2395-50c3-4-6-15-18-23-23-15-24-14-24 12 0 23 4 27 19 23 10-2 20-8 23-12m-5355-267c-22-5 11 33 13 22 1-11-5-21-13-22m-3076 222c15-15 20-25 12-25s-45 58-12 25m167-11c11-14 9-19-11-35-24-18-25-18-34 1-18 40 17 67 45 34m3020-194c-4 0 41 141 29 116-11-26-18-51-15-56 7-11-4-60-14-60m4892 113c3-16 3-30 0-33-8-8-44 41-37 51 11 18 32 8 37-18m-4757-19c-4-12-10-14-17-7-5 5-7 17-3 27 4 12 10 14 17 7 5-5 7-17 3-27m4614 5c0-20-21-49-35-49-19 0-19 5 1 35 17 26 34 33 34 14m448-31c-2-15-11-24-25-26-20-3-21-1-10 22 15 32 40 35 35 4m-8188-37c0-13-60-55-67-47-11 10 27 56 47 56 11 0 20-4 20-9m7790-26c0-14-4-25-9-25-12 0-23 29-15 41 10 18 24 9 24-16m810-4c0-17-15-19-35-5-18 13-18 14 8 14 15 0 27-4 27-9m-530-25c0-16-18-31-27-22-8 8 5 36 17 36 5 0 10-6 10-14m-2622-18c-3-7-20-14-39-16-34-2-34-2-9 13 31 18 53 19 48 3m3085-2c18-14 22-26 10-26-16 1-58 40-43 39 8 0 23-6 33-13m-5883-118c0 12 73 47 55 27-33-33-55-44-55-27m5830 103c0-5 9-13 20-16s20-14 20-23c-1-16-2-16-14 0-10 14-15 15-25 5-9-9-14-9-20 2-11 18-42 6-35-13 6-17-12-31-21-16-11 17-23 11-27-12-3-20-11-24-63-30-33-5-61-12-63-18-2-5-17-10-32-10-16 0-32-4-35-10-7-12-45-13-45-2 0 5 19 15 43 22 23 7 46 17 52 22 5 4 21 8 36 8s30 4 34 9c3 6 29 21 58 35 28 13 61 32 72 40 23 17 45 21 45 7m-2810-5c0-2 3-11 6-20 5-12 0-16-21-16-22 0-25 3-16 13 6 8 8 17 4 20-3 4 1 7 10 7 10 0 17-2 17-4m2185-6c4-6-5-10-19-10s-26 5-26 10c0 6 9 10 19 10 11 0 23-4 26-10m-2462-19c21-5 63-6 94-1 58 7 96 3 88-9-2-4-29-6-58-3-52 4-84-10-61-27 5-3 15-16 22-28 11-21 10-23-9-23-11 0-33 8-47 18-15 10-51 30-80 45-45 22-49 26-30 30 37 7 41 7 81-2m-2564-63c1-5-8-8-19-8-23 0-24 4-8 33 11 21 11 21 19 2 4-11 8-23 8-27m2884 27c4-8 1-17-4-21-6-3-9-17-6-30 3-15 0-24-8-24-11 0-15 64-6 88 3 8 20 0 24-13m2148 0c34-14 34-14 4-14-16 0-39 6-49 14-27 20-1 20 45 0m-5108-35c-9-16-19-27-21-25-8 8 20 65 29 59 5-3 2-18-8-34m5711 15c-27-20-51-20-34 0 7 8 22 15 33 15 20 0 20 0 1-15m-2626-35c-4-18-46-26-60-12-6 6-5 17 3 29 10 17 16 18 36 9 13-6 22-18 21-26m54-32c18 18 43 15 62-7 22-24 15-28-59-36-57-6-132 13-108 28 5 3 15 2 23-4 20-12 43-11 35 1-11 18 5 32 21 19 11-9 18-9 26-1m828-8c0-11-7-20-15-20-18 0-19 12-3 28s18 15 18-8m1418-2c20-20 14-25-35-25-27 0-49-5-51-11-2-7-18-12-35-12s-38-7-48-16c-20-18-188-37-203-23-10 9 2 15 54 23 96 16 110 19 110 27 0 5 11 9 25 9s33 4 43 9c58 29 121 38 140 19m-2038-40c0-12-58-9-65 2-4 6-1 17 5 25 10 12 15 12 36-3 13-9 24-20 24-24m789-4c7-4 17-1 21 6 10 16 40 6 40-14 0-22-19-30-64-27-49 3-77 17-70 35 3 8 0 17-5 21-6 3-9 10-6 15s20 0 38-10c18-11 38-23 46-26m1341 26c8-5 11-12 8-16-10-9-38 3-38 16 0 12 10 13 30 0m-2233-54c-4-9-13-13-22-10-18 7-20 31-2 37 17 6 31-9 24-27m285-28c-9-9-12-4-11 23 0 32 1 33 11 11 8-17 8-26 0-34m-174 28c2-3 1-13-3-23-5-12-9-14-12-5-3 6-11 12-19 12-9 0-12-5-9-10 8-13-20-24-35-15-18 11 28 54 52 50 12-3 23-7 26-9m958-31c-2-7 11-26 30-41q55.5-48-27-36c-24 4-28 8-23 27s1 23-23 28c-15 3-33 1-39-4-8-6-14-4-18 7-12 31-7 36 33 29 24-4 41-2 46 4 9 15 28 2 21-14m-1068-39c3-12-1-17-10-14-7 3-15 13-16 22-3 12 1 17 10 14 7-3 15-13 16-22m-3449-22c-28-16-39-17-39-6 0 12 43 31 54 24 5-3-2-11-15-18m-199-20c0-7-9-14-20-17-23-6 20 23 20 17m-360-97c-17 5 42-13 49-20 12-12 3-37-15-37-8 0-14 10-14 26 0 18-6 28-20 31m142-1c18 5 20 10 38-1 14-9-11-45-32-45-13 0-18-8-18-25 0-18-7-28-26-35-37-14-41-13-41 15 0 20 2 23 13 14 10-8 17-2 31 30 10 23 26 44 35 47m298 39c-7-8-19-15-27-15-7 0-23-9-35-20s-28-20-35-20-13-7-13-15-6-15-12-15c-14 0-87-48-113-73-9-10-25-17-36-17-10 0-19-4-19-9 0-9-145-111-158-111-4 0-18-9-32-20-28-22-650.55-437.12-629.55-417.12 12.09 11.379 93.52 81.544 212.64 163.697C3098.96 475.456 3405.62 670 3414 670c8 0 17 8 21 18 3 9 24 26 46 36 23 10 56 32 74 47 18 16 36 29 40 29 3 0 27 15 52 33 98 69 165 101 133 62m4855-5c9-14-4-70-16-70-19 0-33 48-19 65 15 18 26 19 35 5m-567-17c2-8-5-13-17-13s-21 6-21 16c0 18 31 15 38-3m-2315-18c-6-18-34-16-41 3-2 7 6 12 22 12 19 0 24-4 19-15m317 0c0-8-9-15-20-15s-20 7-20 15 9 15 20 15 20-7 20-15m1373-24c8-8-2-11-36-11-39 0-47 3-47 19 0 17 4 18 36 11 20-5 41-13 47-19m-3514-18c0-11-3-13-6-5-6 15-53 16-53 0 0-6-3-9-6-5-12 12 8 27 37 27 21 0 29-5 28-17m3581 8c0-6 15-12 33-14 32-4 32-4 1-5-18-1-37 5-44 13-9 10-9 15-1 15 6 0 11-4 11-9m-3020-61c0-13-7-20-20-20-22 0-28 25-7 33 22 10 27 7 27-13m4165-37c-7-17-8-16-17 4-6 12-7 30-3 40 7 17 8 16 17-4 6-12 7-30 3-40m-1040 26c39-2 81 1 93 5 32 11 92-2 92-19 0-22-66-39-100-25-44 18-86 10-83-17 3-24-12-29-36-14-7 5-10 14-6 20 13 22-15 42-51 35-28-5-34-3-34 11 0 13 6 15 28 11 15-3 59-6 97-7m-3248-17c8-5-2-12-27-19-41-10-49-6-28 15 14 14 37 15 55 4m353-37c11-13 8-15-17-15-16 0-38 7-49 15-18 13-17 14 17 15 21 0 42-7 49-15m2756 6c-8-13-98-31-123-25-11 3-37-2-58-10-20-9-53-16-71-16-27 0-34-4-34-20 0-15-7-20-27-20-16 0-47-9-70-19-48-22-53-20-53 24 0 30 3 33 42 39 23 4 62 14 87 22 69 22 317 42 307 25m303-30c17-11 4-19-31-19-29 1-37 13-15 21 19 8 31 8 46-2m-203-32c42 19 59 14 61-19 2-30 2-30-56-24-39 5-61 3-65-5-4-6-18-11-31-11s-26-4-29-9c-4-5-25-12-48-16-43-8-50-10-105-39-25-13-37-14-60-5-16 6-51 8-85 4-31-4-71-4-89 0-32 7-32 7-2 20 17 7 74 16 127 20s99 11 102 16 16 9 30 9c13 0 24 5 24 11s16 10 38 8c58-3 72 0 72 16 0 18 5 18 31 4 17-9 21-7 26 10 4 17 8 19 20 10 10-9 20-9 39 0m-2686-34c-7-8-16-15-21-15-14 0-11 38 4 43 20 7 31-11 17-28m2896 27c13-8 25-58 29-120 2-35 8-47 34-66 32-24 32-24 4-29-32-6-93 40-71 54 15 10-9 59-29 59-7 0-13 7-13 15s7 15 15 15 15 9 15 20-7 20-15 20c-18 0-20 26-2 33 17 8 21 8 33-1m-2071-12c-3-5-15-10-26-10-10 0-19 5-19 10 0 6 12 10 26 10s23-4 19-10m118 3c-13-2-35-2-50 0-16 2-5 4 22 4 28 0 40-2 28-4m556-2c7-5 10-14 7-20-11-17-24-13-36 9s3 27 29 11m329-3c-7-19-38-22-38-4 0 10 9 16 21 16s19-5 17-12m2408-5c15-20 19-73 5-73-5 0-11 7-15 15-3 8-12 15-20 15-22 0-28 17-14 40 16 25 27 25 44 3m-721-23c10-16-16-43-28-31-11 11-2 41 12 41 5 0 13-5 16-10m399-28c10-37 3-62-19-62-12 0-14 4-5 19 5 11 10 22 10 25 0 12-36 5-75-14-22-11-46-19-53-20-7 0-20-7-29-15-9-9-23-13-34-10-27 9-35-19-15-50 9-13 16-27 16-31 0-11-55 7-63 22-11 19-53 18-61-1-8-21-28-19-59 5-14 12-40 20-61 20-37 0-47 17-27 49 7 11 13 10 35-5 14-11 26-22 26-26 0-10 30-10 30 0 0 4 17 6 39 4 32-3 42 1 60 24 23 30 78 54 123 54 15 0 35 9 45 19 16 17 68 31 98 26 5-1 14-16 19-33m-5293 0c-7-2-17 2-22 9-6 10-9 11-9 2 0-7-10-13-22-13-23 1-23 1 2 14 18 11 30 11 45 3q21-10.5 6-15m1919 19c0-8-80-22-89-15-1 1 0 7 4 13 8 13 85 15 85 2m-1102-10c11-7-41-14-33 0 7 11 16 11 33 0m3990-29c3-34-3-37-42-23-40 16-15 65 29 57 6-2 11-17 13-34m-638 11c0-31 35-90 63-106 15-9 27-23 27-32 0-8 7-15 15-15 9 0 18-7 22-16 5-13 15-15 47-11 35 5 45 2 65-19 18-19 31-24 49-19 21 5 24 3 19-15-3-14-1-20 6-17 7 2 36-5 64-15 31-11 80-18 121-18 79 0 132-15 132-37 0-13-8-14-42-9-35 6-168 16-248 19-8 0-33 10-55 22-22 13-59 26-82 30-25 4-52 17-65 31-13 13-30 24-39 24-8 0-28 18-45 41-16 22-40 53-54 68-31 33-41 111-15 111 8 0 15-8 15-17m810-6c0-4-2-7-5-7h-35c-16 0-30 3-30 8 0 4 16 7 35 7s35-4 35-8m-4980-28c0-5-7-6-15-3s-22-1-31-10c-8-9-20-13-26-10-7 5-4 12 8 20 10 7 24 17 29 22 10 10 35-3 35-19m618-1c17-17 15-28-7-28s-35 15-26 30c8 13 18 13 33-2m120-5c-4-20-18-26-37-14-18 12-5 31 20 31 14 0 19-6 17-17m4833-9c23-20 14-44-17-44-28 0-31-15-6-29 15-9 15-10-6-11-12 0-31 5-41 12-18 11-17 13 13 33 18 12 30 28 28 38-4 21 6 22 29 1m-271-49c-13-16-40-20-40-7 0 14 12 22 33 22 16 0 17-3 7-15m51-88c-6-6-11-18-11-27s-13-23-29-31-61-31-101-52c-60-32-79-38-122-35-56 3-82 28-30 28 16 0 35 6 41 14 7 8 21 12 31 9 11-3 42 4 69 16 28 11 59 21 70 21 12 0 21 6 21 13 0 13 24 64 50 105 15 22 15 22 18-14 2-20-1-41-7-47m-127 58c19-14 14-35-8-35-18 0-35 21-29 36 6 17 13 17 37-1m-1680-14c8-13-4-42-15-35-12 7-12 44 0 44 6 0 12-4 15-9m166-40c0-20-13-41-21-35-15 9-10 44 6 44 8 0 15-4 15-9m1888-18c2-9-7-13-26-13-17 0-32-6-36-15-3-8-16-15-29-15-14 0-51-16-83-35s-69-35-83-35c-26 1-26 1 4 25 17 14 40 25 53 25 12 0 22 4 22 8 0 5 21 19 48 32 26 12 54 26 62 31 21 12 63 7 68-8m-5336-15c-19-19-14-28 18-28 21 0 30 5 30 16 0 8 5 12 10 9 28-17-19-45-75-45-36 0-54 14-30 24 8 3 15 12 15 21s9 15 22 15c17 0 19-3 10-12m131-27c9 5 22-11 5-11-21 1-21 2-5 11m3097 19c0-14-38-32-58-27-13 4-12 5 4 6 12 0 24 8 28 16 6 17 26 21 26 5m-604-57c-12-12-29 15-21 34 7 17 8 16 18-5 5-12 7-25 3-29m1234 21c0-16-26-19-35-4-3 6-4 14 0 20 8 13 35 1 35-16m-6124-76c-3-50-6-117-6-150 0-34-4-58-11-58s-9 47-5 148c6 172 3 152 17 152 9 0 10-25 5-92m5890 57c-25-19-36-19-36 0 0 10 10 15 28 15 26-1 26-1 8-15m182-2c2-8-6-13-21-13-14 0-33-7-41-16-24-23-19-1 5 25 22 23 49 25 57 4m-3723-23c44 11 56-10 23-9-45 1-49 3-23 9m4593 4c23-5 29-10 24-26-4-15-10-18-29-13-14 3-31 1-39-6-17-14-19-59-2-59 9 0 9-3 0-12-8-8-15-8-26 1-14 12-36 8-36-7 0-12 78-42 113-43 32-1 32-1-6-9-43-8-86-40-54-40 33 0 17-18-23-25-52-9-55-5-53 52 1 26 2 65 2 85 1 33 5 39 37 53 20 8 38 24 41 35 6 22 8 23 51 14m-2093-35c8-25 1-34-20-26-19 8-20 47-1 47 8 0 18-9 21-21m715 12c0-6-5-13-10-16-15-9-43 3-35 15 8 13 45 13 45 1m-804-12c8-14-11-33-25-25-11 7-4 36 9 36 5 0 12-5 16-11m1184-15c0-16-26-19-35-4-3 6-4 14 0 20 8 13 35 1 35-16m-3803-10c2-6-2-14-10-17-19-7-108 4-102 13 3 5 14 6 24 3s22 0 26 7c9 14 57 9 62-6m168 6c3-5-8-16-25-25-33-17-36-15-18 15 14 21 33 26 43 10m2863-41c3-18-24-57-33-47-11 11 6 69 18 65 7-2 13-10 15-18m1337 12c6-11-33-26-43-16-4 3 0 10 8 15 19 12 27 12 35 1m534 0c21-13 42-143 25-154-23-13-46 4-39 30 4 18 1 25-17 32-22 8-22 8 0 13 12 4 22 11 22 17 0 15-46 32-65 25-20-8-19 5 3 27 19 20 49 24 71 10m-1059-20c0-14-18-23-30-16-6 4-8 11-5 16 8 12 35 12 35 0m-3746-16c-4-8-34-8-38 0-4 11 1 15 19 15s23-4 19-15m4056-20c0-10-10-15-31-15-27 0-30 2-19 15 7 8 21 15 31 15 11 0 19-7 19-15m-1520-4c0-14-28-33-40-26-20 12-10 35 15 35 14 0 25-4 25-9m1397-65c1-22-2-26-24-26-20 0-23 3-14 13 19 23 2 27-118 27-64 0-110 4-103 8 7 5 68 7 135 6 122-3 122-3 124-28m-467 9c7-8 21-15 31-15s21-4 24-10c7-11-24-13-49-4-9 3-16 12-16 20 0 10-24 14-102 17-103 3-103 3-2 5 80 2 104-1 114-13m765 5c-3-5-15-10-25-10s-22 5-25 10c-4 6 7 10 25 10s29-4 25-10m295 1c0-5-21-6-47-4-71 7-75 11-10 12 31 1 57-3 57-8M3290 39c0-5 8-9 17-9s14-3 10-6c-3-3-22 0-41 7-22 8-31 16-24 20 13 8 38 1 38-12m63 3c8-7-13-20-13-1 0 8 4 8 13 1m3305 6c19-19 14-28-16-28-35 0-45 9-31 27 14 16 31 17 47 1m-458-18c0-6-29-10-67-9-47 0-62 3-48 9 28 12 115 12 115 0m105 0c4-6-12-10-39-10-25 0-46 5-46 10 0 6 18 10 39 10 22 0 43-4 46-10m880-5c6-2-48-3-120-3-74 0-115 4-95 7 33 7 193 3 215-4m244-1c2-2-22-4-55-3-43 1-52 3-34 9 22 6 79 3 89-6m706 6c15-6 7-9-30-9s-45 3-30 9c11 5 25 9 30 9 6 0 19-4 30-9m725 0c0-6-35-9-87-8-87 1-87 1-28 8 96 11 115 11 115 0m300 0c0-5-11-10-25-10s-25 5-25 10c0 6 11 10 25 10s25-4 25-10" style="fill-rule:nonzero" transform="matrix(.1 0 0 -.1 .13 800)"/><path d="M2916 7098c-5-16-5-36 0-45 7-16 8-15 11 5 3 12 3 32 0 45-3 21-4 20-11-5M4790 6989c0-6-24-7-65-3-46 5-65 3-65-5 0-6 8-11 19-11 18 0 21-16 35-181 2-20 7-42 11-48 4-7-1-18-11-26-18-13-17-14 13-15 17 0 33 6 36 13 3 9 9 9 28-1 14-7 43-15 65-17 21-1 47-6 58-11 10-4 27-2 37 4 10 7 29 12 41 12 20 1 21 2 8 13-18 14-23 67-7 85 15 18 20 179 6 188-19 11-209 14-209 3M1684 5440c0-85 2-120 3-77 2 42 2 112 0 155-1 42-3 7-3-78M8770 7405c0-20 5-25 25-25 16 0 25 6 25 15 0 8 7 15 15 15s15 5 15 10c0 6-18 10-40 10-36 0-40-2-40-25M8129 7069c-8-5-22-6-31-3-14 4-18-1-18-25 0-31 14-49 25-31 3 5 10 10 16 10 14 0 11-26-6-40s-20-46-5-55c6-4 17-1 25 5 24 20 17-1-6-21-18-16-20-21-9-34 10-12 10-21 1-42-10-23-10-29 2-38 9-6 17-24 19-40 3-30 3-30 206-28 112 0 206 4 209 7 14 14 18 291 5 319-15 29-22 33-39 16-8-8-17-8-33 1-11 6-34 9-50 5-46-10-240-14-270-5-15 4-34 4-41-1m418-156c-2-21-4-4-4 37s2 58 4 38c2-21 2-55 0-75M6685 7004c-214-6-469-12-566-13-132-1-179-4-187-14-7-8-12-77-13-177-1-165-1-165 348-162 191 1 481 5 643 8 295 7 295 7 294 178-1 94-2 177-3 184-1 8-20 12-63 10-35 0-238-7-453-14m125-245c88-37 91-67 4-49-27 6-70 14-97 17-26 3-50 10-53 14-9 15-44 10-50-6-10-24-51-19-56 8-9 47-2 50 101 44 68-4 112-12 151-28m-760-19c0-11-7-20-15-20-15 0-21 21-8 33 12 13 23 7 23-13m910-42c0-6-10-8-22-4-13 3-27 6-33 6-5 0-4 4 4 9 16 10 51 3 51-11M1880 6933c1-10 7-29 15-43s14-42 15-63c0-24 4-36 11-32 12 8 1-64-13-82-6-7-6-19 0-30 13-25 14-288 1-401-6-52-7-101-3-110 3-9 7-141 8-293 1-211 4-280 14-292 12-14 48-15 315-10 166 3 332 4 369 3 39-1 69 3 73 10 5 8 10 8 20 0 15-13 314-18 334-6 20 13 145 12 156 0 7-8 38-9 105-2 52 5 111 8 130 7s51-1 70 0c106 4 162 2 175-9 8-7 26-9 44-5 44 9 264 13 276 4 6-4 41 0 79 8 55 13 70 13 76 3 9-14 290-22 290-9 0 4-7 12-15 19-17 14-20 50-5 50 6 0 15-11 22-25 6-13 15-22 19-19 5 3 9 210 9 460 0 397-2 454-15 454-8 0-15 6-15 14 0 9-19 15-57 20-32 4-85 11-118 16-33 6-89 15-125 20s-92 14-125 20-89 15-125 21c-36 5-90 13-120 18s-89 14-130 20-102 15-135 21-91 15-130 20c-38 5-95 15-125 20-30 6-86 15-125 20-38 5-95 14-125 20-30 5-84 14-120 19-36 6-94 15-130 21-81 14-155 25-245 39-38 6-95 15-125 20-59 11-201 34-315 52-38 6-86 15-105 20-55 14-80 11-80-8m2571-643c-4-122-7-155-11-110-7 86-1 319 8 300 4-8 5-94 3-190m-2461-555c0-16-6-25-15-25-21 0-31 30-14 41 23 14 29 11 29-16M4502 5985c1-420 1-420 8-10 4 231 4 414-1 420-5 5-8-171-7-410M678 5058c-1-249-2-486-2-527-1-77 9-96 39-71 9 7 28 10 47 6 35-6 163-12 435-20 132-4 164-2 173 9 8 10 21 13 37 9 24-7 25-5 19 32-9 61-10 164-1 222 7 50 7 52-15 50-13-2-25 3-27 10-3 7 4 12 19 12 23 0 23 0 20 228-1 125-2 267-1 315 0 50-5 94-11 102-8 9-7 14 5 19 8 3 15 17 15 31 0 26 0 26-237 24-157-2-240-6-245-13-5-8-11-7-20 2-8 8-49 12-130 12-118 0-118 0-120-452m422-533c0-18-5-25-20-25-20 0-28 28-13 43 15 16 33 6 33-18m-120-10c0-14-4-25-10-25-5 0-10 11-10 25s5 25 10 25c6 0 10-11 10-25M5075 3974c-27-8-71-13-96-12s-51-2-57-6c-19-11-14-26 8-26 12 0 20-7 20-16 0-12-4-14-12-7-17 13-58 14-58 2 0-5 6-9 14-9s18-9 21-20c5-14 12-19 24-15 23 7 67-27 57-44-5-7-14-10-22-7-20 8-28-13-11-32 18-21 31-78 19-86-5-3-8-21-7-41 1-34-18-50-28-22q-4.5 12-12-6c-11-27 13-49 46-42 24 6 28 3 31-21 3-31 28-46 28-17 0 20 18 43 33 43 5 0 7-14 3-31-6-30-5-31 22-24 37 9 38 11 23 50-7 19-10 43-7 53 3 9 8 76 11 147 3 72 7 147 10 168 2 20 0 37-3 36-4 0-29-7-57-15m0-155c0-7-8-15-17-17-18-3-25 18-11 32 10 10 28 1 28-15" style="fill-rule:nonzero" transform="matrix(.1 0 0 -.1 0 800)"/><path d="M4908 3769c-19-20-24-59-8-59 6 0 10-4 10-10 0-5-6-7-12-5-9 4-13-9-15-45-1-43 2-50 18-50 14 0 19 7 19 30 0 22 4 28 15 24 17-7 19 1 15 66-2 56-18 74-42 49M8040 3591c0-12 39-25 48-16 7 7-17 25-35 25-7 0-13-4-13-9M6375 3341c5-18 2-21-24-21-35 0-41-15-11-25 28-9 62 12 58 37-2 12-9 23-17 26-9 3-11-2-6-17M6820 3345c-12-15-11-16 16-13 16 1 28 8 27 13-3 17-29 17-43 0M6980 3350c-12-8-12-10 3-16 22-8 50 3 42 16-8 12-25 13-45 0M7196 3353c-19-19 9-44 69-64 18-6 17-7-8-18-16-6-48-11-73-11-31 0-44-4-44-14s14-14 50-14c28 0 50 4 50 9s9 9 19 9c17 0 36 25 32 43 0 4 6 10 14 13 8 4 15 10 15 15 0 12-34 11-46-1-13-13-44-2-44 15 0 14-25 27-34 18M6155 3325c0-17 7-26 23-30 12-3 22-10 22-15 0-15 38-12 43 3 3 8 9 7 19-6 9-12 23-18 39-15 24 3 24 3 2 26-15 14-35 22-57 22-44 0-66 9-66 26 0 8-6 14-12 14-7 0-13-11-13-25M6580 3342c0-6-8-13-17-15-10-3 10-5 45-6 35 0 61 3 58 8-3 4-17 6-31 3-14-2-32 1-40 8-9 8-15 8-15 2M7095 3328c-8-18-17-22-43-20-21 1-31-2-27-8 3-5 0-19-8-31-9-12-18-16-21-10-4 5-2 12 4 16 13 8 3 25-15 25s-38-57-22-63c27-10 118 5 113 19-5 13 12 19 37 15 15-2 47 20 46 32q0 13.5-6 0c-6-15-43-17-43-3 0 6 7 13 15 16 12 5 13 10 4 20-16 19-23 18-34-8M5990 3332c0-4-48-9-107-10-150-4-225-14-231-31-3-10 3-11 28-6 52 11 286 8 309-4 12-7 21-10 21-8 0 3 17 1 39-3 33-6 38-5 34 11-3 11 3 22 16 28 12 7 21 16 21 21 0 15-27 12-43-5-13-13-16-13-21 0-6 15-66 22-66 7" style="fill-rule:nonzero" transform="matrix(.1 0 0 -.1 0 800)"/><path d="M6738 3333c-17-3-25-9-22-17s-2-16-11-20c-33-12-4-23 60-21 43 2 68-2 73-10 4-7 27-15 51-18 30-4 40-2 30 4-12 8-11 11 4 20 17 10 23 44 9 53-5 3-20-6-35-20-28-26-52-31-63-13-3 6-17 8-29 5-28-7-42 9-25 29 13 16 13 16-42 8M7725 3331c-3-5-1-12 5-16 12-7 30 2 30 16 0 12-27 12-35 0M6470 3299c0-19-4-21-35-16-33 5-55-6-40-21 10-10 245-10 245 0 0 4 7 8 15 8s15 7 15 15c0 16-20 20-35 6-16-14-74-21-81-10-4 7-10 6-19-1-18-15-36-4-33 18 2 9-5 18-14 20-13 2-18-3-18-19M7346 3284c6-21 4-26-7-22-8 3-23 0-33-7-16-12-15-14 12-20 18-3 32-14 35-26 3-11 11-17 19-14 20 8 10 75-14 98-18 18-19 18-12-9M7550 3280c-24-18-24-19-6-26 12-5 21-3 24 4 2 7 10 12 18 12s14 7 14 15c0 20-20 19-50-5M7799 3239c-62-66-53-80 13-21 50 43 58 53 58 70 0 21-14 12-71-49" style="fill-rule:nonzero" transform="matrix(.1 0 0 -.1 0 800)"/><path d="M7661 3271c-12-12-21-24-21-28 0-7-122-9-145-3-5 2-21-2-35-8-25-11-25-11 1-11 14-1 30-6 36-12 7-7 13-7 17-1 3 5 26 7 51 5 54-7 110 17 118 49 8 31 2 33-22 9M7720 3276c0-8-12-28-26-45-21-26-23-32-10-37 19-7 36 3 36 22 0 8 5 14 11 14s9 8 7 18c-2 9 3 22 12 29 13 11 12 12-7 13-13 0-23-6-23-14M7416 3271c-4-5 1-14 10-19 21-12 56-3 51 12-5 14-53 20-61 7M5570 3251c-12-8-8-11 17-11 18 0 99-4 180-10 82-5 274-14 428-20 358-13 698-28 945-40 107-6 276-12 374-15 99-3 181-7 184-9 6-7 32 5 32 14s9 9-245 20c-536 24-702 36-722 52-9 7-22 7-42-2-21-8-74-10-188-6-87 4-232 9-323 12-91 2-203 7-250 9-268 14-376 15-390 6M8420 3250c-7-4-9-13-6-19 4-6 3-11-3-11-5 0-11 5-13 11-3 8-18 9-46 4-48-8-55-22-14-27 19-2 28-9 30-25 4-28 30-36 87-28 50 8 66 22 71 65 3 24-1 30-19 34-35 6-73 4-87-4M6980 2170c-11-7-7-10 18-10 17 0 32 5 32 10 0 13-30 13-50 0M7202 2118c3-7 19-15 36-19 17-3 43-14 58-24 19-12 29-14 37-6 15 15 27 14 27-1 0-8 14-13 33-14 54-2 111-17 122-31 9-12 16-12 38-2 46 21 27 36-37 30-11-1-28 7-38 16-12 11-39 18-71 20-59 2-153 21-179 34-24 12-30 11-26-3M7615 2029c-4-6-4-13 0-17 8-8 97-32 146-39 46-6 61 13 17 22-32 6-64 18-100 36-24 12-55 11-63-2M7542 1393c2-27 7-48 13-48 14 0 24 72 11 85-20 20-27 9-24-37M7690 1008c0-13 5-30 10-38 7-11 10-5 10 23 0 20-4 37-10 37-5 0-10-10-10-22M7910 1791c-18-5-21-9-12-15 17-10 65 2 57 14-7 11-9 11-45 1M3322 1233c-18-7-4-23 19-23 12 0 19 5 17 12-5 14-18 18-36 11M3410 1169c0-24 23-21 28 4 2 10-3 17-12 17-10 0-16-9-16-21M3342 1028c-14-14-16-38-2-38 13 0 32 38 22 44-5 3-14 0-20-6M3830 1089c-20-36-6-41 25-9 27 28 28 30 7 30-12 0-26-9-32-21M11764 7069c-1-968 0-958-39-946-6 3-11 132-13 356-2 307-4 352-17 349s-16-301-18-2563c-5-3574-2-4265 21-4265 16 0 17 26 15 377-2 263-4 3943-3 4403 0 13 21 14 145 12 145-4 145-4 145 40 0 43 0 43-145 40s-145-3-143 315c3 318 3 318 146 314 142-3 142-3 142 48s0 51-62 51c-66 0-71 16-8 22 31 3 36 7 46 43 6 22 14 48 18 57 5 10 1 26-9 42-15 23-16 28-1 57 18 35 22 129 6 129-5 0-10 7-10 15s5 15 10 15c6 0 10 14 10 30 0 30 0 30-113 30-134 0-150-7-145-65 2-25 8-39 16-37 6 1 12-2 12-8 0-5-7-10-16-10-13 0-15-10-9-72 3-40 8-99 10-131 3-61 20-86 58-87 9 0 17-6 17-14 0-13-93-29-113-18-4 2-6 110-5 240 3 266-13 239 166 258 34 4 62 11 62 15 0 5 60 9 60 9l.3 1880H11883c-118 0-118 0-119-931" style="fill-rule:nonzero" transform="matrix(.1 0 0 -.1 0 800)"/><path d="M11680 6951c0-72 3-91 14-91 19 0 18 171-1 178-10 3-13-19-13-87M11343 6525c0-33 2-45 4-27s2 45 0 60-4 0-4-33M0 6022c0-220 3-331 10-327 5 3 10 17 10 31 0 13 5 24 10 24 6 0 10-9 10-20 0-27 18-25 22 3 4 30 22 24 26-9 3-24 6-26 40-20 85 15 174 18 185 7 18-18 167-15 167 4 0 9 14 22 31 29 31 13 31 13 31 252 0 281 0 267-11 260-9-6-26 22-23 36 4 16-58 21-202 16-83-3-135-2-116 2 33 6 34 7 10 13-14 4-59 6-100 4-59-3-78 0-87 12-10 13-12-53-13-317m529 181c0-35-1-36-10-14-5 14-7 31-5 38 10 24 16 13 15-24M4763 6030c-1-101 1-109 9-67 7 31 7 71 0 115-9 67-9 66-9-48M4763 5685c0-38 2-53 4-32 2 20 2 52 0 70-2 17-4 1-4-38M9007 5553c18-2 50-2 70 0 21 2 7 4-32 4-38 0-55-2-38-4M11980 5455c0-9-7-18-15-21-10-4-15-20-15-50 0-24-5-44-10-44-13 0-29 40-23 56 5 14-9 24-57 41-45 16-60 16-38 0 10-8 13-18 9-26-6-10-10-10-16-1-5 8-13 6-27-7-28-25-40-61-32-95 5-27 7-28 19-11 13 17 14 17 20 1 4-11 0-24-9-34-14-13-16-36-15-126 1-62-2-113-8-119-7-7-5-21 5-44 17-36 42-54 42-30 0 16 12 20 23 8 4-3 2-12-4-20-9-10-6-13 14-13 14 0 29 5 33 11 6 11 59 8 102-6 22-7 22-7 22 269 0 177-4 276-10 276-5 0-10-7-10-15M11343 5339c-6-6-9-17-7-24 3-6 6-448 8-981 2-633 7-993 14-1039 6-38 16-97 21-130 11-58 23-134 41-240 5-32 7 7 3 105-2 85-8 173-13 195-4 22-6 63-4 90 3 28 4 57 4 65 1 8 1 330 1 715s1 825 2 977c2 278 2 278-28 278-17 0-36-5-42-11M6186 5203c-4-60-12-209-17-333-18-401-28-612-37-765-9-155-6-173 25-160 23 10 225 6 238-5 5-4 42-8 80-8 39 0 72-1 75-2 19-6 161-6 165 1 7 10 673-24 850-27 116-3 365-7 555-10 275-5 346-9 355-20 19-26 42 0 26 30-10 17-11 32-4 53 6 15 11 161 13 323s5 315 6 340c2 25 6 190 10 368 7 323 7 323-1137 320s-1144-3-1142-92c1-48 7-94 13-101 6-8 7-22 1-41-16-49-22-156-10-170 14-18 7-49-11-49s-27-122-11-138c8-8 11 2 11 32 0 23 4 40 8 37 5-3 5-30 2-61-6-54-25-84-43-66-8 8-5 157 9 504 5 123 3 147-9 147-11 0-16-25-21-107m31-692c-4-70-10-142-13-160-7-33 10-101 4-120-6-20-8-64-4-104 5-59 4-68-9-63-11 4-15-2-15-26 0-25 3-28 14-19s-41-47-26 80c7 53 12 152 12 221 0 112 13 274 25 308 13 38 17-2 12-117m461-528c-21-2-57-2-80 0-24 2-7 4 37 4s63-2 43-4M8571 5145c-1-27-4-135-7-240-4-104-4-188-1-185s8 79 11 170c4 91 8 172 11 180 2 8 0 40-5 70-8 55-8 55-9 5M11817 4713c-30-5-32-28-3-28 10 0 23-8 30-18 17-22 33-22 46 3 6 11 20 20 30 20 35 0 22 17-17 24-21 3-42 5-48 4-5 0-23-3-38-5M11975 4710c-9-14 5-100 16-100 5 0 9 25 9 55 0 51-10 69-25 45M2 4615c1-90 1-90 11-22 6 47 6 75-1 90-8 17-10 2-10-68M8563 4565c0-38 2-53 4-32 2 20 2 52 0 70-2 17-4 1-4-38M11747 4583c-3-5-3-35-1-68 3-33 7-125 9-204 3-80 9-147 13-150 8-5 1-138-11-226-3-16 1-37 8-45 12-14 19-62 15-105-1-11-3-58-5-105s-11-107-20-134c-22-63-17-66 112-66 56 0 133-8.41 133-8.41V4566.1s13-15.1-143-14.1c-23 1-28 5-24 19 4 16-1 19-38 19-24 0-46-3-48-7m65-411c6-44-3-56-18-26-15 28-12 54 5 54 5 0 11-13 13-28M8559 4420c-6-45-4-58 7-48 3 3 4 26 2 49-3 44-3 44-9-1M8542 4215c0-72 2-84 10-62 6 18 6 49 0 90-9 62-9 62-10-28M8541 3966c-1-29 2-37 10-29s8 19 1 40c-10 28-10 28-11-11M7446 3831c-18-4-35-17-45-36-47-85-67-98-57-36 4 28 2 42-9 51-13 11-15 2-15-74 0-75 2-86 16-84 10 2 19-3 22-11 3-9-1-11-17-6-17 5-21 2-21-14 0-12 5-21 10-21 6 0 10 5 10 10 0 6 5 10 10 10 19 0 10-32-10-37-23-6-25-14-8-31 10-10 8-14-10-18-12-4-22-10-22-14 0-8 29-4 60 7 8 3 25 5 38 4 13-2 29 3 37 9 11 9 16 7 25-9 7-15 21-21 45-21 33 0 51 11 38 24-4 3-7 16-9 29-1 12-7 48-12 80-6 32-9 64-6 72 3 7-2 25-12 40-16 25-16 27 6 50 19 20 20 25 8 25-9 0-22 2-30 4-7 2-26 1-42-3m4-196c0-25-4-35-16-35-11 0-14 5-9 18 4 9 10 25 12 35 8 27 13 20 13-18M7016 3515c-7-18-43-20-49-2-8 23-15 2-10-32 3-18 9-28 13-22 7 12 18 14 137 26 58 6 71 10 66 22-6 15-50 14-110-3-17-5-23-2-23 10 0 20-16 21-24 1M6900 3465c0-8 9-15 20-15 24 0 27 15 4 24-22 9-24 8-24-9M7700 3471c0-6 5-11 10-11 6 0 10-4 10-10 0-16-26-12-41 6-11 14-27 15-99 9-47-3-178-7-292-8-114-2-209-5-213-8-3-4 113-9 257-13 145-3 305-9 356-12 102-7 113 0 52 35-22 12-40 17-40 12M11980 3398c0-33-15-52-31-42-19 12-64 15-126 8-46-5-53-8-53-28 0-12 6-28 12-34 14-14 20-160 7-168-13-7 2-35 22-43 18-6 17-9-10-38-26-29-28-36-21-70 29-133 29-308 1-362-14-24 18-58 37-39 9 9 12 8 12-5 0-10-8-17-18-17-26 0-45-67-26-95 8-13 13-42 11-75-2-55-2-55 32-60 23-3 11-29 11-38 0-7-12-17-26-22-27-11-28-37 0-32 9 2 16-2 16-8 0-5-6-10-13-10-24 0-51-26-41-41 4-8 7-24 6-36-3-17 18-69 14-90-3-21-9-52-12-70-6-29 16-121 16-176 0-41-3-50-20-54-21-6-22-30-1-25 6 1 11-12 11-31 0-17 4-47 9-65 9-30 8-32-15-32-17 0-24-6-24-19 0-26 88-211 40-211-24 0-40-5-44-15-7-18 2-45 15-45 17 0 31-52 17-62-10-6-8-8 5-8 9 0-43-63-43-93 0-27 28-57 53-57 9 0-19-71-35-76-10-3-18-12-18-19 0-11 6-12 26-5 39 15 18-65 10-51-9 13-36 15-36 2 0-9 34-54 19-61-26-15-20-34 14-38 28-3 32-89 11-71-9 7-14 7-14 1 0-5-9-12-20-15-12-3-20-14-20-27 0-21 3-22 45-16 46 6 1-127 12-57 5 28 3 35-8 31-10-3-13-17-11-46 3-32-1-45-17-59-24-20-27-33-7-33 17 0 30-47 18-63-17-22-21-62-10-102 20-78 27-198 11-216-7-9-17-34-20-54-7-41-9-40 42-19 11 5 15-1 15-24 0-33-23-61-35-41-6 8-10 7-16-2-17-26 241-29.271 241-29.271V3420s-20-10-20-22M495 3271c-6-11-6-1-5-251 0-107-1-329-3-493-2-291-2-298 18-302 11-2 139-11 285-20 146-8 342-20 436-26 199-14 209-12 199 34-4 17-13 100-20 182-10 134-10 151 4 163 11 9 13 15 4 20-7 5-11 38-10 97 1 50 1 133 1 185-3 204 2 315 14 338 10 18 10 23 0 26-24 7-340 26-603 36-143 6-272 12-287 15-15 2-30 0-33-4m431-62c3-6 15-8 26-6 11 3 30 2 42-3 12-4 69-4 127 0 76 6 106 5 111-3 5-7-1-15-15-21-12-4-31-13-43-18-35-16-216-26-221-11-3 7-15 10-31 7-15-3-44 2-66 11-37 16-38 17-20 36 19 21 78 26 90 8M6990 2780c0-5 9-10 19-10 11 0 23 5 26 10 4 6-5 10-19 10s-26-4-26-10M8594 2685c-3-8-3-19 1-25 8-13 35-13 35 0 0 7 13 8 34 5 21-4 36-2 41 5 10 15 8 16-53 23-40 5-54 3-58-8M10234 2549c-8-14 5-29 27-29 10 0 19 6 19 14 0 16-37 28-46 15M10560 2540c0-5 14-10 30-10 17 0 30 5 30 10 0 6-13 10-30 10-16 0-30-4-30-10M11090 2511c0-13 30-22 53-15 16 5 17 8 6 15-18 11-59 11-59 0M11217 2513c-23-22 4-63 28-43 8 6 23 9 35 5 25-8 62 3 55 16-4 5-21 9-40 9s-37 5-40 10c-7 11-28 13-38 3M9896 2415c-7-19 4-60 40-146 13-30 30-80 38-110 14-51 15-52 15-18 1 20-12 80-29 134-16 54-30 103-30 109 0 7-6 20-13 30-13 18-14 18-21 1M8731 2355c-8-27-18-54-22-59-5-6-9-28-8-50 0-23 2-36 4-31 1 6 8 30 15 55s17 54 22 66 8 32 6 45c-2 18-7 12-17-26" style="fill-rule:nonzero" transform="matrix(.1 0 0 -.1 0 800)"/><path d="M10003 2343c-9-23 6-226 17-237 6-6 10-29 10-53s5-43 10-43c6 0 9-21 8-47-1-47-1-47-5-9-3 22-11 49-19 60s-14 35-14 53-4 33-10 33c-5 0-10-5-10-10 0-18 31-164 37-174 3-4 7-26 8-48 4-43 22-130 36-166 5-13 9-40 9-62 0-21 5-42 10-45 6-4 10-12 9-18-1-7-1-29 0-49 2-57 20-45 23 15 2 28 4-18 6-103 1-85 4-184 5-220s-2-78-6-95c-8-27-7-29 7-15 20 20 24 211 5 252-8 18-9 42-3 75 8 48 8 48 16-7 5-30 12-79 16-109 7-54 7-54 142-58 74-2 144-6 155-9s85-10 165-15 204-14 275-19c124-9 380-27 418-29 9-1 17-8 17-16 0-14-18-15-142-10-79 3-156 8-173 11-16 3-100 10-185 15-266 16-424 28-450 33-14 3-66 7-116 10-92 5-92 5-96-77-7-139-73-244-190-303-45-23-68-27-145-29-93-2-93-2-157-56-92-77-152-120-223-163-63-37-59.31-21.612-65.72-306.54-2.97-131.824-2.69-242.89-2.69-242.89s302.53-18.154 983.61-18.154c504.7 0 950.3.59 950.3.59S11349 581.926 11349 1123c0 617 2 1133 6 1147 6 25 6 25-122 26-70 0-225 6-343 12-118 7-298 17-400 22s-198 12-215 15c-16 2-83 6-148 8-98 4-120 2-124-10m169-125c-8-8-9-15-1-25 14-16 5-17-20-1-18 11-18 13-3 25 21 16 40 17 24 1m253-15c-11-3-24-9-29-14-6-5-17-9-25-9-13 1-12 4 3 15 11 8 31 14 45 14 21-1 22-2 6-6m400-68c26-9 32-14 19-15-37 0-84 12-78 21 7 12 12 11 59-6m-596-49c20-17 112-33 296-51 188-19 259-19 302 1 26 13 37 14 46 5 15-15-38-60-71-61-13 0-20-4-17-10 3-5-2-10-12-11-10 0-70-4-133-8s-122-4-130 0-42 12-75 17c-130 22-195 36-195 44 0 4-9 8-20 8s-76 21-55 54c19 29 41 33 64 12m-162-253c-2-16-4-3-4 27s2 43 4 28c2-16 2-40 0-55m751 19c2-7-7-12-23-12-24 0-26 2-15 15 14 17 31 16 38-3m-709-204c-1-53-1-53-10-13-5 21-7 45-5 52 11 26 16 12 15-39m936 23c6 0 6-4 0-10-11-10-115-2-115 9 0 6 79 7 115 1m-655-47c63-4 126-8 140-10 14-1 51-3 83-3 32-1 56-5 53-10-12-19-445-5-478 15-20 13 7 25 45 20 23-3 94-8 157-12m649-38c-11-11-131-17-125-7 4 6 35 11 68 11 34 0 59-2 57-4m121-6c-20-13-67-13-75 0-4 6 12 10 42 10 35 0 44-3 33-10m-402-56c18-8 32-18 32-21 0-6-73 3-125 14-30 7-30 7 10 14 22 3 43 7 46 8 3 0 20-6 37-15m297-25c10-15-1-23-17-13-7 5-21 7-32 5-11-1-16 2-12 8 9 14 53 14 61 0m168-6c2-5-2-19-9-33-14-25-14-25-14 8 0 29 13 43 23 25m-828-54c55 0 114-3 130-7 29-8 28-9-19-16-66-10-216 3-241 21-19 15-19 15 5 8 14-4 70-7 125-6m355 1c0-5-3-10-7-10-5 0-19-3-33-6-24-6-25-6-5 9 23 19 45 22 45 7m430-60c0-6-19-7-47-3-65 8-67 13-5 13 29 0 52-4 52-10m-834-259c5-5 18-12 29-15s0-3-25 0c-50 6-80 24-39 24 14 0 29-4 35-9m211-73c21-17 203-30 230-17 26 14 53 6 53-15 0-12-12-14-62-12-104 6-382 38-391 46-14 12 156 10 170-2m453-26c0-12-78-14-85-2-4 6 12 10 39 10 25 0 46-4 46-8m-460-39c0-5-66-7-146-5-209 5-232-10-64-42 199-36 440-49 479-24 10 6 26 8 36 4 25-9 2-34-41-42-18-3-38-12-45-20-6-8-20-14-30-14-11 0-19-5-19-11 0-7-14-8-39-4-24 4-46 2-58-5-15-10-33-8-88 8-39 12-104 24-145 28-71 7-112 19-154 47-15 9-20 9-23 0-3-7-52 14-49 29 12 55 22 58 212 58 96 0 174-3 174-7m226-15c13-14 1-15-110-10-70 3-104 8-95 14 16 10 194 7 205-4m-327-324c2-2-22-4-55-3-40 0-53 3-39 8 18 8 84 4 94-5m-144-4c-3-5-15-10-26-10-10 0-19 5-19 10 0 6 12 10 26 10s23-4 19-10m553-42c-7-19-63-22-78-4-11 14-7 16 35 16 33 0 45-4 43-12m-1261-38c2-13-3-20-13-20-11 0-14 5-10 16 3 9 6 21 6 26 0 18 14-1 17-22m1517 11c8-13-11-18-48-13-27 4-28 6-11 13 28 11 53 11 59 0m-1361-25c7-18-1-26-28-26-12 0-24 3-28 6-12 12 6 34 28 34 13 0 25-6 28-14m120-21c4-8 2-17-3-20-10-6-50 16-50 27 0 14 48 8 53-7m214-23c40-1 75 3 78 8 10 16 25 11 25-9 0-16 9-18 83-19 45 0 145-2 222-5 77-2 168-5 203-6 39 0 61-5 57-11-3-5-15-10-26-10-10 0-19-5-19-11 0-8-16-10-52-4-29 4-96 7-148 6s-133 5-179 13c-62 10-89 11-102 3-14-9-22-7-37 6-15 14-36 17-119 15-56-2-105 1-110 5-11 12 28 39 41 29 6-5 43-9 83-10m358-2c-28-12-45-12-45 0 0 6 15 10 33 9 27 0 29-2 12-9m476-51c15-29 4-34-80-34-82 0-99 19-18 21 40 1 53 5 55 17 5 24 29 21 43-4m199-24c10-13 11-18 1-28-10-9-14-8-22 6-11 18-54 23-64 7-7-11-75-14-75-4 0 33 136 48 160 19m-67-102c-13-2-35-2-50 0-16 2-5 4 22 4 28 0 40-2 28-4m151-12c11-4 15-10 10-13-14-8-84 3-78 13 6 11 41 11 68 0m-749-11c-7-12-98-11-117 1-8 5 15 9 55 9 44 0 66-4 62-10m-829-81c47-12 59-29 20-29-16 0-26-7-30-22-5-21-7-20-26 17-27 53-30 50 36 34m149-29c8-13-59-42-79-34-28 11-17 24 18 24 19 0 38 5 41 10 8 13 12 13 20 0m337-15c10-4 15-11 12-16-7-11-58-6-98 10-17 7-47 9-73 5-38-5-54 2-39 17 7 6 178-7 198-16m118-11c0-19-33-35-58-29-27 7-27 7 3 20 33 15 55 18 55 9m-330-14c0-5-15-10-32-9-28 0-30 2-13 9 28 12 45 12 45 0m428-17c2-9-10-13-42-13-50 0-63 16-18 23 40 6 55 4 60-10m-258-3c0-5-17-9-37-9-38 1-38 1-8 9 43 11 45 11 45 0m585-16c60-14 60-14-30-9-189 10-270 18-250 25 28 10 210 0 280-16m215-20c0-12-6-15-22-10-13 3-27 6-31 6-5 0-5 5-2 10 10 17 55 12 55-6m160-29c0-8-6-15-14-15-17 0-28 14-19 24 12 12 33 6 33-9m-436-14c3-5-1-12-10-15-22-9-24-8-24 9 0 16 25 21 34 6M8656 2122c-4-18-5-36-2-39 11-12 17 5 14 39-3 33-3 33-12 0" style="fill-rule:nonzero" transform="matrix(.1 0 0 -.1 0 800)"/><path d="M9918 1994c-12-11-9-72 3-79 17-11 21 1 12 45-4 23-11 38-15 34M4638 1242c-3-172-2-186 18-178 7 3 48 1 91-4 43-6 155-17 248-25 94-8 208-19 255-25 47-5 130-14 185-20 55-5 163-17 240-25 301-32 493-51 820-79 99-9 196-20 215-25 19-6 42-10 50-9 35 1 269-24 308-34 54-13 80 3 44 28-18 12-21 19-11 30 16 19 4 44-21 44-23 0-175 37-205 50-38 16-71 21-189 30-91 6-125 13-145 27-30 22-90 128-89 158 0 11 0 25-1 31-1 7-36 14-93 18-109 7-252 20-393 36-55 6-152 15-215 21-63 5-155 14-205 19-352 33-494 46-615 55-74 5-167 16-262 30-27 4-27 4-30-153m727 58c-3-5-15-10-25-10s-22 5-25 10c-4 6 7 10 25 10s29-4 25-10m720-110c4-6-7-10-27-10-25 0-29 3-18 10 19 13 37 13 45 0m180-40c3-6-1-13-10-16-19-8-30 0-20 15 8 14 22 14 30 1M6482 1248c3-7 13-15 22-16 12-3 17 1 14 10-3 7-13 15-22 16-12 3-17-1-14-10M9926 1199c-22-21-48-41-58-45-29-9-21-31 21-52 37-19 40-20 54-4 33 37 54 144 28 141-3 0-24-18-45-40M9833 1065c-13-12-20-25-16-28 12-13 43-7 43 7 0 8 3 21 6 30 8 22-7 18-33-9M10000 1051c0-14 5-18 19-14 12 3 17 11 14 19-8 21-33 17-33-5M9960 1015c0-18 5-25 20-25 11 0 20 6 20 13s-9 18-20 25c-18 11-20 10-20-13M9916 1013c-10-11-7-19 19-47 13-14 32-26 41-26 16 0 15 3-4 20-12 11-26 20-31 20-6 0-8 6-5 14 6 15-9 30-20 19M9820 966c0-16 11-32 29-45 38-27 54-27 46 1q-9 22.5 6 15c54-22 54-22 27 6-23 23-31 25-53 17-31-12-46-6-38 15 3 8 0 15-6 15s-11-11-11-24M3796 848c-3-13-6-25-6-28-1-2 3-6 9-8s11 5 11 15c0 11 5 24 12 31 9 9 8 12-4 12-9 0-18-10-22-22M1640 196c0-25 5-46 10-46 6 0 10 18 10 39 0 22-4 43-10 46-6 4-10-12-10-39M2660 153c1-27 1-27 15-9 19 25 19 36 0 36-10 0-15-10-15-27" style="fill-rule:nonzero" transform="matrix(.1 0 0 -.1 0 800)"/></svg>