<?xml version="1.0" encoding="UTF-8" standalone="no"?>
<!DOCTYPE svg PUBLIC "-//W3C//DTD SVG 1.1//EN" "http://www.w3.org/Graphics/SVG/1.1/DTD/svg11.dtd">
<svg width="100%" height="100%" viewBox="0 0 1600 900" version="1.1" xmlns="http://www.w3.org/2000/svg" xmlns:xlink="http://www.w3.org/1999/xlink" xml:space="preserve" xmlns:serif="http://www.serif.com/" style="fill-rule:evenodd;clip-rule:evenodd;stroke-linejoin:round;stroke-miterlimit:2;">
    <g transform="matrix(4.27305,-0.74568,0.173226,0.992653,-2119.1,648.333)">
        <rect x="477" y="351" width="380" height="75" style="fill:rgb(255,179,0);"/>
    </g>
    <g transform="matrix(1.06492,-0.185837,0.188929,1.08264,-345.151,71.8216)">
        <path d="M456.441,561.107L423.897,561.107L387.736,629.873L420.281,629.873L456.441,561.107Z" style="fill:rgb(28,28,28);"/>
    </g>
    <g transform="matrix(1.06492,-0.185837,0.188929,1.08264,-280.543,60.547)">
        <path d="M456.441,561.107L423.897,561.107L387.736,629.873L420.281,629.873L456.441,561.107Z" style="fill:rgb(28,28,28);"/>
    </g>
    <g transform="matrix(1.06492,-0.185837,0.188929,1.08264,-215.935,49.2724)">
        <path d="M456.441,561.107L423.897,561.107L387.736,629.873L420.281,629.873L456.441,561.107Z" style="fill:rgb(28,28,28);"/>
    </g>
    <g transform="matrix(1.06492,-0.185837,0.188929,1.08264,-474.367,94.3708)">
        <path d="M456.441,561.107L423.897,561.107L387.736,629.873L420.281,629.873L456.441,561.107Z" style="fill:rgb(28,28,28);"/>
    </g>
    <g transform="matrix(1.06492,-0.185837,0.188929,1.08264,-409.759,83.0962)">
        <path d="M456.441,561.107L423.897,561.107L387.736,629.873L420.281,629.873L456.441,561.107Z" style="fill:rgb(28,28,28);"/>
    </g>
    <g transform="matrix(1.06492,-0.185837,0.188929,1.08264,-538.975,105.645)">
        <path d="M456.441,561.107L423.897,561.107L387.736,629.873L420.281,629.873L456.441,561.107Z" style="fill:rgb(28,28,28);"/>
    </g>
    <g transform="matrix(1.06492,-0.185837,0.188929,1.08264,-151.327,37.9978)">
        <path d="M456.441,561.107L423.897,561.107L387.736,629.873L420.281,629.873L456.441,561.107Z" style="fill:rgb(28,28,28);"/>
    </g>
    <g transform="matrix(1.06492,-0.185837,0.188929,1.08264,-86.7191,26.7232)">
        <path d="M456.441,561.107L423.897,561.107L387.736,629.873L420.281,629.873L456.441,561.107Z" style="fill:rgb(28,28,28);"/>
    </g>
    <g transform="matrix(1.06492,-0.185837,0.188929,1.08264,-22.1111,15.4486)">
        <path d="M456.441,561.107L423.897,561.107L387.736,629.873L420.281,629.873L456.441,561.107Z" style="fill:rgb(28,28,28);"/>
    </g>
    <g transform="matrix(1.06492,-0.185837,0.188929,1.08264,42.4969,4.17396)">
        <path d="M456.441,561.107L423.897,561.107L387.736,629.873L420.281,629.873L456.441,561.107Z" style="fill:rgb(28,28,28);"/>
    </g>
    <g transform="matrix(1.06492,-0.185837,0.188929,1.08264,107.105,-7.10065)">
        <path d="M456.441,561.107L423.897,561.107L387.736,629.873L420.281,629.873L456.441,561.107Z" style="fill:rgb(28,28,28);"/>
    </g>
    <g transform="matrix(1.06492,-0.185837,0.188929,1.08264,171.713,-18.3753)">
        <path d="M456.441,561.107L423.897,561.107L387.736,629.873L420.281,629.873L456.441,561.107Z" style="fill:rgb(28,28,28);"/>
    </g>
    <g transform="matrix(1.06492,-0.185837,0.188929,1.08264,236.321,-29.6499)">
        <path d="M456.441,561.107L423.897,561.107L387.736,629.873L420.281,629.873L456.441,561.107Z" style="fill:rgb(28,28,28);"/>
    </g>
    <g transform="matrix(1.06492,-0.185837,0.188929,1.08264,300.929,-40.9245)">
        <path d="M456.441,561.107L423.897,561.107L387.736,629.873L420.281,629.873L456.441,561.107Z" style="fill:rgb(28,28,28);"/>
    </g>
    <g transform="matrix(1.06492,-0.185837,0.188929,1.08264,365.537,-52.1991)">
        <path d="M456.441,561.107L423.897,561.107L387.736,629.873L420.281,629.873L456.441,561.107Z" style="fill:rgb(28,28,28);"/>
    </g>
    <g transform="matrix(1.06492,-0.185837,0.188929,1.08264,430.145,-63.4737)">
        <path d="M456.441,561.107L423.897,561.107L387.736,629.873L420.281,629.873L456.441,561.107Z" style="fill:rgb(28,28,28);"/>
    </g>
    <g transform="matrix(1.06492,-0.185837,0.188929,1.08264,494.753,-74.7483)">
        <path d="M456.441,561.107L423.897,561.107L387.736,629.873L420.281,629.873L456.441,561.107Z" style="fill:rgb(28,28,28);"/>
    </g>
    <g transform="matrix(1.06492,-0.185837,0.188929,1.08264,559.361,-86.0229)">
        <path d="M456.441,561.107L423.897,561.107L387.736,629.873L420.281,629.873L456.441,561.107Z" style="fill:rgb(28,28,28);"/>
    </g>
    <g transform="matrix(1.06492,-0.185837,0.188929,1.08264,623.969,-97.2975)">
        <path d="M456.441,561.107L423.897,561.107L387.736,629.873L420.281,629.873L456.441,561.107Z" style="fill:rgb(28,28,28);"/>
    </g>
    <g transform="matrix(1.06492,-0.185837,0.188929,1.08264,688.577,-108.572)">
        <path d="M456.441,561.107L423.897,561.107L387.736,629.873L420.281,629.873L456.441,561.107Z" style="fill:rgb(28,28,28);"/>
    </g>
    <g transform="matrix(1.06492,-0.185837,0.188929,1.08264,753.185,-119.847)">
        <path d="M456.441,561.107L423.897,561.107L387.736,629.873L420.281,629.873L456.441,561.107Z" style="fill:rgb(28,28,28);"/>
    </g>
    <g transform="matrix(1.06492,-0.185837,0.188929,1.08264,817.793,-131.121)">
        <path d="M456.441,561.107L423.897,561.107L387.736,629.873L420.281,629.873L456.441,561.107Z" style="fill:rgb(28,28,28);"/>
    </g>
    <g transform="matrix(1.06492,-0.185837,0.188929,1.08264,882.401,-142.396)">
        <path d="M456.441,561.107L423.897,561.107L387.736,629.873L420.281,629.873L456.441,561.107Z" style="fill:rgb(28,28,28);"/>
    </g>
    <g transform="matrix(1.06492,-0.185837,0.188929,1.08264,947.009,-153.671)">
        <path d="M456.441,561.107L423.897,561.107L387.736,629.873L420.281,629.873L456.441,561.107Z" style="fill:rgb(28,28,28);"/>
    </g>
    <g transform="matrix(1.06492,-0.185837,0.188929,1.08264,1011.62,-164.945)">
        <path d="M456.441,561.107L423.897,561.107L387.736,629.873L420.281,629.873L456.441,561.107Z" style="fill:rgb(28,28,28);"/>
    </g>
    <g transform="matrix(4.07823,1.47749,-0.343229,0.947397,-1846.84,-688.926)">
        <rect x="477" y="351" width="380" height="75" style="fill:rgb(255,179,0);"/>
    </g>
    <g transform="matrix(1.01637,0.368217,-0.374343,1.03328,-21.0444,-307.159)">
        <path d="M456.441,561.107L423.897,561.107L387.736,629.873L420.281,629.873L456.441,561.107Z" style="fill:rgb(28,28,28);"/>
    </g>
    <g transform="matrix(1.01637,0.368217,-0.374343,1.03328,40.6181,-284.82)">
        <path d="M456.441,561.107L423.897,561.107L387.736,629.873L420.281,629.873L456.441,561.107Z" style="fill:rgb(28,28,28);"/>
    </g>
    <g transform="matrix(1.01637,0.368217,-0.374343,1.03328,102.281,-262.48)">
        <path d="M456.441,561.107L423.897,561.107L387.736,629.873L420.281,629.873L456.441,561.107Z" style="fill:rgb(28,28,28);"/>
    </g>
    <g transform="matrix(1.01637,0.368217,-0.374343,1.03328,-144.369,-351.838)">
        <path d="M456.441,561.107L423.897,561.107L387.736,629.873L420.281,629.873L456.441,561.107Z" style="fill:rgb(28,28,28);"/>
    </g>
    <g transform="matrix(1.01637,0.368217,-0.374343,1.03328,-82.7069,-329.499)">
        <path d="M456.441,561.107L423.897,561.107L387.736,629.873L420.281,629.873L456.441,561.107Z" style="fill:rgb(28,28,28);"/>
    </g>
    <g transform="matrix(1.01637,0.368217,-0.374343,1.03328,-206.032,-374.178)">
        <path d="M456.441,561.107L423.897,561.107L387.736,629.873L420.281,629.873L456.441,561.107Z" style="fill:rgb(28,28,28);"/>
    </g>
    <g transform="matrix(1.01637,0.368217,-0.374343,1.03328,163.943,-240.141)">
        <path d="M456.441,561.107L423.897,561.107L387.736,629.873L420.281,629.873L456.441,561.107Z" style="fill:rgb(28,28,28);"/>
    </g>
    <g transform="matrix(1.01637,0.368217,-0.374343,1.03328,225.605,-217.801)">
        <path d="M456.441,561.107L423.897,561.107L387.736,629.873L420.281,629.873L456.441,561.107Z" style="fill:rgb(28,28,28);"/>
    </g>
    <g transform="matrix(1.01637,0.368217,-0.374343,1.03328,287.268,-195.462)">
        <path d="M456.441,561.107L423.897,561.107L387.736,629.873L420.281,629.873L456.441,561.107Z" style="fill:rgb(28,28,28);"/>
    </g>
    <g transform="matrix(1.01637,0.368217,-0.374343,1.03328,348.93,-173.122)">
        <path d="M456.441,561.107L423.897,561.107L387.736,629.873L420.281,629.873L456.441,561.107Z" style="fill:rgb(28,28,28);"/>
    </g>
    <g transform="matrix(1.01637,0.368217,-0.374343,1.03328,410.593,-150.783)">
        <path d="M456.441,561.107L423.897,561.107L387.736,629.873L420.281,629.873L456.441,561.107Z" style="fill:rgb(28,28,28);"/>
    </g>
    <g transform="matrix(1.01637,0.368217,-0.374343,1.03328,472.255,-128.443)">
        <path d="M456.441,561.107L423.897,561.107L387.736,629.873L420.281,629.873L456.441,561.107Z" style="fill:rgb(28,28,28);"/>
    </g>
    <g transform="matrix(1.01637,0.368217,-0.374343,1.03328,533.918,-106.104)">
        <path d="M456.441,561.107L423.897,561.107L387.736,629.873L420.281,629.873L456.441,561.107Z" style="fill:rgb(28,28,28);"/>
    </g>
    <g transform="matrix(1.01637,0.368217,-0.374343,1.03328,595.58,-83.7643)">
        <path d="M456.441,561.107L423.897,561.107L387.736,629.873L420.281,629.873L456.441,561.107Z" style="fill:rgb(28,28,28);"/>
    </g>
    <g transform="matrix(1.01637,0.368217,-0.374343,1.03328,657.243,-61.4248)">
        <path d="M456.441,561.107L423.897,561.107L387.736,629.873L420.281,629.873L456.441,561.107Z" style="fill:rgb(28,28,28);"/>
    </g>
    <g transform="matrix(1.01637,0.368217,-0.374343,1.03328,718.905,-39.0853)">
        <path d="M456.441,561.107L423.897,561.107L387.736,629.873L420.281,629.873L456.441,561.107Z" style="fill:rgb(28,28,28);"/>
    </g>
    <g transform="matrix(1.01637,0.368217,-0.374343,1.03328,780.568,-16.7458)">
        <path d="M456.441,561.107L423.897,561.107L387.736,629.873L420.281,629.873L456.441,561.107Z" style="fill:rgb(28,28,28);"/>
    </g>
    <g transform="matrix(1.01637,0.368217,-0.374343,1.03328,842.23,5.59366)">
        <path d="M456.441,561.107L423.897,561.107L387.736,629.873L420.281,629.873L456.441,561.107Z" style="fill:rgb(28,28,28);"/>
    </g>
    <g transform="matrix(1.01637,0.368217,-0.374343,1.03328,903.892,27.9331)">
        <path d="M456.441,561.107L423.897,561.107L387.736,629.873L420.281,629.873L456.441,561.107Z" style="fill:rgb(28,28,28);"/>
    </g>
    <g transform="matrix(1.01637,0.368217,-0.374343,1.03328,965.555,50.2726)">
        <path d="M456.441,561.107L423.897,561.107L387.736,629.873L420.281,629.873L456.441,561.107Z" style="fill:rgb(28,28,28);"/>
    </g>
    <g transform="matrix(1.01637,0.368217,-0.374343,1.03328,1027.22,72.6121)">
        <path d="M456.441,561.107L423.897,561.107L387.736,629.873L420.281,629.873L456.441,561.107Z" style="fill:rgb(28,28,28);"/>
    </g>
    <g transform="matrix(1.01637,0.368217,-0.374343,1.03328,1088.88,94.9516)">
        <path d="M456.441,561.107L423.897,561.107L387.736,629.873L420.281,629.873L456.441,561.107Z" style="fill:rgb(28,28,28);"/>
    </g>
    <g transform="matrix(1.01637,0.368217,-0.374343,1.03328,1150.54,117.291)">
        <path d="M456.441,561.107L423.897,561.107L387.736,629.873L420.281,629.873L456.441,561.107Z" style="fill:rgb(28,28,28);"/>
    </g>
    <g transform="matrix(1.01637,0.368217,-0.374343,1.03328,1212.2,139.631)">
        <path d="M456.441,561.107L423.897,561.107L387.736,629.873L420.281,629.873L456.441,561.107Z" style="fill:rgb(28,28,28);"/>
    </g>
    <g transform="matrix(1.01637,0.368217,-0.374343,1.03328,1273.87,161.97)">
        <path d="M456.441,561.107L423.897,561.107L387.736,629.873L420.281,629.873L456.441,561.107Z" style="fill:rgb(28,28,28);"/>
    </g>
</svg>
